<mxfile host="app.diagrams.net" modified="2022-05-06T01:25:37.622Z" agent="5.0 (Macintosh; Intel Mac OS X 10_15_7) AppleWebKit/537.36 (KHTML, like Gecko) Chrome/100.0.4896.127 Safari/537.36" etag="WPrRpwHaGm4ReYB5FjDU" version="17.5.0" type="github">
  <diagram id="kIgxvBVhW27RwqY-FTyx" name="ODM执行流水线">
    <mxGraphModel dx="1889" dy="1020" grid="1" gridSize="10" guides="1" tooltips="1" connect="1" arrows="1" fold="1" page="1" pageScale="1" pageWidth="2339" pageHeight="3300" math="0" shadow="0">
      <root>
        <mxCell id="0" />
        <mxCell id="1" parent="0" />
        <mxCell id="HGHsy-E57DKtYDnPdhEY-85" value="" style="group" vertex="1" connectable="0" parent="1">
          <mxGeometry x="390" y="110" width="1100" height="790" as="geometry" />
        </mxCell>
        <mxCell id="HGHsy-E57DKtYDnPdhEY-82" value="&lt;b&gt;无人机影像拼接算法流程&lt;/b&gt;" style="fillColor=#F6F6F6;strokeColor=none;shadow=0;gradientColor=none;fontSize=14;align=left;spacing=10;fontColor=#717171;9E9E9E;verticalAlign=top;spacingTop=-4;fontStyle=0;spacingLeft=40;html=1;labelBackgroundColor=none;fontFamily=Helvetica;" vertex="1" parent="HGHsy-E57DKtYDnPdhEY-85">
          <mxGeometry width="1100" height="790" as="geometry" />
        </mxCell>
        <mxCell id="HGHsy-E57DKtYDnPdhEY-81" value="" style="group" vertex="1" connectable="0" parent="HGHsy-E57DKtYDnPdhEY-85">
          <mxGeometry x="30" y="30" width="1040" height="728" as="geometry" />
        </mxCell>
        <mxCell id="HGHsy-E57DKtYDnPdhEY-15" value="" style="shape=mxgraph.gcp2.doubleRect;strokeColor=#dddddd;shadow=1;strokeWidth=1;rounded=1;absoluteArcSize=1;arcSize=2;" vertex="1" parent="HGHsy-E57DKtYDnPdhEY-81">
          <mxGeometry x="30" y="100" width="190" height="68" as="geometry" />
        </mxCell>
        <mxCell id="HGHsy-E57DKtYDnPdhEY-16" value="&lt;font color=&quot;#000000&quot;&gt;参数解析&lt;/font&gt;&lt;br&gt;共 82 项&lt;br&gt;重建参数 / 成果选项" style="editableCssRules=.*;html=1;fontColor=#999999;shape=image;verticalLabelPosition=middle;labelBackgroundColor=#ffffff;verticalAlign=middle;labelPosition=right;align=left;spacingLeft=20;part=1;points=[];imageAspect=0;image=data:image/svg+xml,PHN2ZyB4bWxucz0iaHR0cDovL3d3dy53My5vcmcvMjAwMC9zdmciIHhtbG5zOnY9Imh0dHBzOi8vdmVjdGEuaW8vbmFubyIgd2lkdGg9IjIwLjAxMDAwMDIyODg4MTgzNiIgaGVpZ2h0PSI5LjQ5NDcyOTA0MjA1MzIyMyIgdmlld0JveD0iMC4wMDAyMDYzODQ1NjA0NDI1Mjk2MiAwIDIwLjAxMDAwMDIyODg4MTgzNiA5LjQ5NDcyOTA0MjA1MzIyMyI+JiN4YTsJPHN0eWxlIHR5cGU9InRleHQvY3NzIj4mI3hhOwkuc3Qwe2ZpbGw6IzQyODVmNDt9JiN4YTsJLnN0MXtmaWxsOiM2NjlkZjY7fSYjeGE7CS5zdDJ7ZmlsbDojYWVjYmZhO30mI3hhOwk8L3N0eWxlPiYjeGE7CTxwYXRoIGNsYXNzPSJzdDAiIGQ9Ik0xLjQ3NiA4LjQzYTQuMzEgNC4zMSAwIDEgMSA2LjA3LS40IDMuNjggMy42OCAwIDAgMS0uMzkuNCA0LjMyIDQuMzIgMCAwIDEtNS42OCAwem01LjItNS4yYTMuMDcgMy4wNyAwIDEgMC0uNCA0LjMzIDMgMyAwIDAgMCAuNC0uNCAzLjA3IDMuMDcgMCAwIDAgMC0zLjkzem02LjE5IDUuMmE0LjMxIDQuMzEgMCAxIDEgNi4wNy0uNCAzLjc4IDMuNzggMCAwIDEtLjQuNCA0LjMxIDQuMzEgMCAwIDEtNS42NyAwem01LjItNS4yYTMuMDcgMy4wNyAwIDEgMC0uNCA0LjMzIDMgMyAwIDAgMCAuNC0uNCAzLjA4IDMuMDggMCAwIDAgMC0zLjkzeiIvPiYjeGE7CTxnIGNsYXNzPSJzdDEiPiYjeGE7CQk8Y2lyY2xlIGN4PSI0LjMxNiIgY3k9IjUuMTkiIHI9IjEuNjkiLz4mI3hhOwkJPGNpcmNsZSBjeD0iMTUuNjk2IiBjeT0iNS4xOSIgcj0iMS42OSIvPiYjeGE7CTwvZz4mI3hhOwk8cGF0aCBjbGFzcz0ic3QyIiBkPSJNMTIuMzk2LjU2YS4zMS4zMSAwIDAgMC0uMTgtLjU2aC00LjQyYS4zMS4zMSAwIDAgMC0uMTguNTYgNS43MyA1LjczIDAgMCAxIDIuMTMgMi45Mi4yOC4yOCAwIDAgMCAuMzYuMTYuMjkuMjkgMCAwIDAgLjE3LS4xNyA1LjY3IDUuNjcgMCAwIDEgMi4xMi0yLjkxeiIvPiYjeGE7PC9zdmc+;" vertex="1" parent="HGHsy-E57DKtYDnPdhEY-15">
          <mxGeometry width="30" height="14" relative="1" as="geometry">
            <mxPoint x="15" y="23" as="offset" />
          </mxGeometry>
        </mxCell>
        <mxCell id="HGHsy-E57DKtYDnPdhEY-18" value="" style="shape=mxgraph.gcp2.doubleRect;strokeColor=#dddddd;shadow=1;strokeWidth=1;rounded=1;absoluteArcSize=1;arcSize=2;" vertex="1" parent="HGHsy-E57DKtYDnPdhEY-81">
          <mxGeometry x="600" y="100" width="180" height="68" as="geometry" />
        </mxCell>
        <mxCell id="HGHsy-E57DKtYDnPdhEY-19" value="&lt;font color=&quot;#000000&quot;&gt;任务切分&lt;br&gt;&lt;/font&gt;大数据量任务划分" style="editableCssRules=.*;html=1;fontColor=#999999;shape=image;verticalLabelPosition=middle;labelBackgroundColor=#ffffff;verticalAlign=middle;labelPosition=right;align=left;spacingLeft=20;part=1;points=[];imageAspect=0;image=data:image/svg+xml,PHN2ZyB4bWxucz0iaHR0cDovL3d3dy53My5vcmcvMjAwMC9zdmciIHhtbG5zOnY9Imh0dHBzOi8vdmVjdGEuaW8vbmFubyIgd2lkdGg9IjIwIiBoZWlnaHQ9IjE5Ljk4OTk5OTc3MTExODE2NCIgdmlld0JveD0iMCAwIDIwIDE5Ljk4OTk5OTc3MTExODE2NCI+JiN4YTsJPHN0eWxlIHR5cGU9InRleHQvY3NzIj4mI3hhOwkuc3Qwe2ZpbGw6IzQyODVmNDt9JiN4YTsJLnN0MXtmaWxsOiM2NjlkZjY7fSYjeGE7CS5zdDJ7ZmlsbDojYWVjYmZhO30mI3hhOwk8L3N0eWxlPiYjeGE7CTxwYXRoIGNsYXNzPSJzdDEiIGQ9Ik0zIDMuOTlMMCA2LjQydjcuMTNsMyAyLjQ0eiIvPiYjeGE7CTxwYXRoIGNsYXNzPSJzdDAiIGQ9Ik0zIDMuOTlsLTMgNCAzLTJ6bS0zIDhsMyA0di0yeiIvPiYjeGE7CTxwYXRoIGNsYXNzPSJzdDIiIGQ9Ik0wIDE1Ljk5bDQgNCAyLTItNi02em0uMDEtOEw1Ljk5IDJsLTItMkwwIDMuOTl6Ii8+JiN4YTsJPHBhdGggY2xhc3M9InN0MSIgZD0iTTE3IDE2bDMtMi40MlY2LjQ0TDE3IDR6Ii8+JiN4YTsJPHBhdGggY2xhc3M9InN0MCIgZD0iTTE3IDE2bDMtNC0zIDJ6bTMtOGwtMy00djJ6Ii8+JiN4YTsJPGcgY2xhc3M9InN0MiI+JiN4YTsJCTxwYXRoIGQ9Ik0yMCA0bC00LTQtMiAyIDYgNnptLS4wMSA4bC01Ljk4IDUuOTkgMiAyTDIwIDE2eiIvPiYjeGE7CQk8Y2lyY2xlIGN4PSI2IiBjeT0iOS45OSIgcj0iMSIvPiYjeGE7CQk8Y2lyY2xlIGN4PSIxMCIgY3k9IjkuOTkiIHI9IjEiLz4mI3hhOwkJPGNpcmNsZSBjeD0iMTMuOTkiIGN5PSI5Ljk5IiByPSIxIi8+JiN4YTsJPC9nPiYjeGE7PC9zdmc+;" vertex="1" parent="HGHsy-E57DKtYDnPdhEY-18">
          <mxGeometry width="30" height="24" relative="1" as="geometry">
            <mxPoint x="15" y="18" as="offset" />
          </mxGeometry>
        </mxCell>
        <mxCell id="HGHsy-E57DKtYDnPdhEY-21" value="" style="shape=mxgraph.gcp2.doubleRect;strokeColor=#dddddd;shadow=1;strokeWidth=1;rounded=1;absoluteArcSize=1;arcSize=2;" vertex="1" parent="HGHsy-E57DKtYDnPdhEY-81">
          <mxGeometry x="810" y="100" width="180" height="68" as="geometry" />
        </mxCell>
        <mxCell id="HGHsy-E57DKtYDnPdhEY-22" value="&lt;font color=&quot;#000000&quot;&gt;任务合并&lt;br&gt;&lt;/font&gt;子任务合并" style="editableCssRules=.*;html=1;fontColor=#999999;shape=image;verticalLabelPosition=middle;labelBackgroundColor=#ffffff;verticalAlign=middle;labelPosition=right;align=left;spacingLeft=20;part=1;points=[];imageAspect=0;image=data:image/svg+xml,PHN2ZyB4bWxucz0iaHR0cDovL3d3dy53My5vcmcvMjAwMC9zdmciIHhtbG5zOnY9Imh0dHBzOi8vdmVjdGEuaW8vbmFubyIgd2lkdGg9IjIwIiBoZWlnaHQ9IjE5Ljk4OTk5OTc3MTExODE2NCIgdmlld0JveD0iMCAwIDIwIDE5Ljk4OTk5OTc3MTExODE2NCI+JiN4YTsJPHN0eWxlIHR5cGU9InRleHQvY3NzIj4mI3hhOwkuc3Qwe2ZpbGw6IzQyODVmNDt9JiN4YTsJLnN0MXtmaWxsOiM2NjlkZjY7fSYjeGE7CS5zdDJ7ZmlsbDojYWVjYmZhO30mI3hhOwk8L3N0eWxlPiYjeGE7CTxwYXRoIGNsYXNzPSJzdDEiIGQ9Ik0zIDMuOTlMMCA2LjQydjcuMTNsMyAyLjQ0eiIvPiYjeGE7CTxwYXRoIGNsYXNzPSJzdDAiIGQ9Ik0zIDMuOTlsLTMgNCAzLTJ6bS0zIDhsMyA0di0yeiIvPiYjeGE7CTxwYXRoIGNsYXNzPSJzdDIiIGQ9Ik0wIDE1Ljk5bDQgNCAyLTItNi02em0uMDEtOEw1Ljk5IDJsLTItMkwwIDMuOTl6Ii8+JiN4YTsJPHBhdGggY2xhc3M9InN0MSIgZD0iTTE3IDE2bDMtMi40MlY2LjQ0TDE3IDR6Ii8+JiN4YTsJPHBhdGggY2xhc3M9InN0MCIgZD0iTTE3IDE2bDMtNC0zIDJ6bTMtOGwtMy00djJ6Ii8+JiN4YTsJPGcgY2xhc3M9InN0MiI+JiN4YTsJCTxwYXRoIGQ9Ik0yMCA0bC00LTQtMiAyIDYgNnptLS4wMSA4bC01Ljk4IDUuOTkgMiAyTDIwIDE2eiIvPiYjeGE7CQk8Y2lyY2xlIGN4PSI2IiBjeT0iOS45OSIgcj0iMSIvPiYjeGE7CQk8Y2lyY2xlIGN4PSIxMCIgY3k9IjkuOTkiIHI9IjEiLz4mI3hhOwkJPGNpcmNsZSBjeD0iMTMuOTkiIGN5PSI5Ljk5IiByPSIxIi8+JiN4YTsJPC9nPiYjeGE7PC9zdmc+;" vertex="1" parent="HGHsy-E57DKtYDnPdhEY-21">
          <mxGeometry width="30" height="24" relative="1" as="geometry">
            <mxPoint x="15" y="18" as="offset" />
          </mxGeometry>
        </mxCell>
        <mxCell id="HGHsy-E57DKtYDnPdhEY-68" style="edgeStyle=orthogonalEdgeStyle;rounded=0;orthogonalLoop=1;jettySize=auto;html=1;exitX=1;exitY=0.5;exitDx=0;exitDy=0;entryX=0;entryY=0.5;entryDx=0;entryDy=0;fontFamily=Helvetica;fontSize=12;endArrow=blockThin;strokeColor=#4284F3;endFill=1;strokeWidth=2;endSize=4;startSize=4;dashed=0;" edge="1" parent="HGHsy-E57DKtYDnPdhEY-81" source="HGHsy-E57DKtYDnPdhEY-18" target="HGHsy-E57DKtYDnPdhEY-21">
          <mxGeometry relative="1" as="geometry" />
        </mxCell>
        <mxCell id="HGHsy-E57DKtYDnPdhEY-24" value="" style="group" vertex="1" connectable="0" parent="HGHsy-E57DKtYDnPdhEY-81">
          <mxGeometry x="260" width="300" height="260" as="geometry" />
        </mxCell>
        <mxCell id="HGHsy-E57DKtYDnPdhEY-23" value="数据集构建" style="sketch=0;points=[[0,0,0],[0.25,0,0],[0.5,0,0],[0.75,0,0],[1,0,0],[1,0.25,0],[1,0.5,0],[1,0.75,0],[1,1,0],[0.75,1,0],[0.5,1,0],[0.25,1,0],[0,1,0],[0,0.75,0],[0,0.5,0],[0,0.25,0]];rounded=1;absoluteArcSize=1;arcSize=2;html=1;strokeColor=none;gradientColor=none;shadow=0;dashed=0;fontSize=12;fontColor=#9E9E9E;align=left;verticalAlign=top;spacing=10;spacingTop=-4;fillColor=#F1F8E9;" vertex="1" parent="HGHsy-E57DKtYDnPdhEY-24">
          <mxGeometry width="300" height="260" as="geometry" />
        </mxCell>
        <mxCell id="HGHsy-E57DKtYDnPdhEY-20" value="" style="group" vertex="1" connectable="0" parent="HGHsy-E57DKtYDnPdhEY-24">
          <mxGeometry x="20" y="40" width="260" height="200" as="geometry" />
        </mxCell>
        <mxCell id="HGHsy-E57DKtYDnPdhEY-7" value="" style="strokeColor=#dddddd;shadow=1;strokeWidth=1;rounded=1;absoluteArcSize=1;arcSize=2;" vertex="1" parent="HGHsy-E57DKtYDnPdhEY-20">
          <mxGeometry width="260" height="60" as="geometry" />
        </mxCell>
        <mxCell id="HGHsy-E57DKtYDnPdhEY-8" value="从已上传的图像中构建数据集&#xa;/var/www/data/" style="editableCssRules=.*;fontColor=#999999;shape=image;verticalLabelPosition=middle;labelBackgroundColor=#ffffff;verticalAlign=middle;labelPosition=right;align=left;spacingLeft=20;part=1;points=[];imageAspect=0;image=data:image/svg+xml,PHN2ZyB4bWxucz0iaHR0cDovL3d3dy53My5vcmcvMjAwMC9zdmciIHhtbG5zOnY9Imh0dHBzOi8vdmVjdGEuaW8vbmFubyIgd2lkdGg9IjE5LjkzMzEzNDA3ODk3OTQ5MiIgaGVpZ2h0PSIxMC44NjAwMDA2MTAzNTE1NjIiIHZpZXdCb3g9IjAuMDAwMDI2NTAxNDY0MTYyNzIwMzY3IC0zLjgxMjY2MDA1NDMzNjQ0NzVlLTggMTkuOTMzMTM0MDc4OTc5NDkyIDEwLjg2MDAwMDYxMDM1MTU2MiI+JiN4YTsJPHN0eWxlIHR5cGU9InRleHQvY3NzIj4mI3hhOwkuc3Qwe2ZpbGw6IzQyODVmNDt9JiN4YTsJLnN0MXtmaWxsOiM2NjlkZjY7fSYjeGE7CS5zdDJ7ZmlsbDojYWVjYmZhO30mI3hhOwk8L3N0eWxlPiYjeGE7CTxwYXRoIGNsYXNzPSJzdDAiIGQ9Ik0xOS41NjMgMEg3LjE5M2EuMzIuMzIgMCAwIDAtLjMyLjMzdjIuMTZhLjMyLjMyIDAgMCAwIC4zMi4zMmgxMi4zN2EuMzIuMzIgMCAwIDAgLjM3LS4zMlYuMzNhLjMyLjMyIDAgMCAwLS4zMS0uMzN6TTguNDIzIDIuMTRhLjcuNyAwIDEgMSAuNy0uN2gwYS43LjcgMCAwIDEtLjcuN3ptMTEuMTQgMS45SDcuMTkzYS4zMi4zMiAwIDAgMC0uMzIuMzJ2Mi4xNWEuMzIuMzIgMCAwIDAgLjMyLjMyaDEyLjM3YS4zMi4zMiAwIDAgMCAuMzItLjMyVjQuMzZhLjMyLjMyIDAgMCAwLS4zMi0uMzJ6TTguNDIzIDYuMThhLjcuNyAwIDEgMSAuNy0uN2gwYS43LjcgMCAwIDEtLjcuN3ptMTEuMTkgMS44N0g3LjI1M2EuMzIuMzIgMCAwIDAtLjMyLjMydjIuMTZhLjMyLjMyIDAgMCAwIC4zMi4zM2gxMi4zNmEuMzIuMzIgMCAwIDAgLjMyLS4zM1Y4LjM3YS4zMi4zMiAwIDAgMC0uMzItLjMyem0tMTEuMTQgMi4xM2EuNzEuNzEgMCAwIDEtLjctLjcxLjcxLjcxIDAgMCAxIDEuNDEgMCAuNzEuNzEgMCAwIDEtLjcxLjcxeiIvPiYjeGE7CTxwYXRoIGNsYXNzPSJzdDEiIGQ9Ik00LjY3MyAzLjI5aC0yLjEzYS44MTIuODEyIDAgMCAxLS4yMS0xLjYxaDIuMzRhLjgxNS44MTUgMCAxIDEgLjI2IDEuNjF6Ii8+JiN4YTsJPHBhdGggY2xhc3M9InN0MiIgZD0iTTQuNjczIDYuMjRILjg1M2EuODIuODIgMCAwIDEtLjIxLTEuNjJoNGEuODIzLjgyMyAwIDAgMSAuMjkgMS42MnoiLz4mI3hhOwk8cGF0aCBjbGFzcz0ic3QxIiBkPSJNNC42NzMgOS4xOGgtMi4xM2EuODEyLjgxMiAwIDAgMS0uMjEtMS42MWgyLjM0YS44MTUuODE1IDAgMCAxIC4yNiAxLjYxeiIvPiYjeGE7PC9zdmc+;" vertex="1" parent="HGHsy-E57DKtYDnPdhEY-7">
          <mxGeometry width="30" height="16" relative="1" as="geometry">
            <mxPoint x="15" y="22" as="offset" />
          </mxGeometry>
        </mxCell>
        <mxCell id="HGHsy-E57DKtYDnPdhEY-9" value="" style="strokeColor=#dddddd;shadow=1;strokeWidth=1;rounded=1;absoluteArcSize=1;arcSize=2;" vertex="1" parent="HGHsy-E57DKtYDnPdhEY-20">
          <mxGeometry y="70" width="260" height="60" as="geometry" />
        </mxCell>
        <mxCell id="HGHsy-E57DKtYDnPdhEY-10" value="将文件信息存放至文件系统&#xa;images.json" style="editableCssRules=.*;fontColor=#999999;shape=image;verticalLabelPosition=middle;labelBackgroundColor=#ffffff;verticalAlign=middle;labelPosition=right;align=left;spacingLeft=20;part=1;points=[];imageAspect=0;image=data:image/svg+xml,PHN2ZyB4bWxucz0iaHR0cDovL3d3dy53My5vcmcvMjAwMC9zdmciIHhtbG5zOnY9Imh0dHBzOi8vdmVjdGEuaW8vbmFubyIgd2lkdGg9IjE5LjkzMzEzNDA3ODk3OTQ5MiIgaGVpZ2h0PSIxMC44NjAwMDA2MTAzNTE1NjIiIHZpZXdCb3g9IjAuMDAwMDI2NTAxNDY0MTYyNzIwMzY3IC0zLjgxMjY2MDA1NDMzNjQ0NzVlLTggMTkuOTMzMTM0MDc4OTc5NDkyIDEwLjg2MDAwMDYxMDM1MTU2MiI+JiN4YTsJPHN0eWxlIHR5cGU9InRleHQvY3NzIj4mI3hhOwkuc3Qwe2ZpbGw6IzQyODVmNDt9JiN4YTsJLnN0MXtmaWxsOiM2NjlkZjY7fSYjeGE7CS5zdDJ7ZmlsbDojYWVjYmZhO30mI3hhOwk8L3N0eWxlPiYjeGE7CTxwYXRoIGNsYXNzPSJzdDAiIGQ9Ik0xOS41NjMgMEg3LjE5M2EuMzIuMzIgMCAwIDAtLjMyLjMzdjIuMTZhLjMyLjMyIDAgMCAwIC4zMi4zMmgxMi4zN2EuMzIuMzIgMCAwIDAgLjM3LS4zMlYuMzNhLjMyLjMyIDAgMCAwLS4zMS0uMzN6TTguNDIzIDIuMTRhLjcuNyAwIDEgMSAuNy0uN2gwYS43LjcgMCAwIDEtLjcuN3ptMTEuMTQgMS45SDcuMTkzYS4zMi4zMiAwIDAgMC0uMzIuMzJ2Mi4xNWEuMzIuMzIgMCAwIDAgLjMyLjMyaDEyLjM3YS4zMi4zMiAwIDAgMCAuMzItLjMyVjQuMzZhLjMyLjMyIDAgMCAwLS4zMi0uMzJ6TTguNDIzIDYuMThhLjcuNyAwIDEgMSAuNy0uN2gwYS43LjcgMCAwIDEtLjcuN3ptMTEuMTkgMS44N0g3LjI1M2EuMzIuMzIgMCAwIDAtLjMyLjMydjIuMTZhLjMyLjMyIDAgMCAwIC4zMi4zM2gxMi4zNmEuMzIuMzIgMCAwIDAgLjMyLS4zM1Y4LjM3YS4zMi4zMiAwIDAgMC0uMzItLjMyem0tMTEuMTQgMi4xM2EuNzEuNzEgMCAwIDEtLjctLjcxLjcxLjcxIDAgMCAxIDEuNDEgMCAuNzEuNzEgMCAwIDEtLjcxLjcxeiIvPiYjeGE7CTxwYXRoIGNsYXNzPSJzdDEiIGQ9Ik00LjY3MyAzLjI5aC0yLjEzYS44MTIuODEyIDAgMCAxLS4yMS0xLjYxaDIuMzRhLjgxNS44MTUgMCAxIDEgLjI2IDEuNjF6Ii8+JiN4YTsJPHBhdGggY2xhc3M9InN0MiIgZD0iTTQuNjczIDYuMjRILjg1M2EuODIuODIgMCAwIDEtLjIxLTEuNjJoNGEuODIzLjgyMyAwIDAgMSAuMjkgMS42MnoiLz4mI3hhOwk8cGF0aCBjbGFzcz0ic3QxIiBkPSJNNC42NzMgOS4xOGgtMi4xM2EuODEyLjgxMiAwIDAgMS0uMjEtMS42MWgyLjM0YS44MTUuODE1IDAgMCAxIC4yNiAxLjYxeiIvPiYjeGE7PC9zdmc+;" vertex="1" parent="HGHsy-E57DKtYDnPdhEY-9">
          <mxGeometry width="30" height="16" relative="1" as="geometry">
            <mxPoint x="15" y="22" as="offset" />
          </mxGeometry>
        </mxCell>
        <mxCell id="HGHsy-E57DKtYDnPdhEY-11" value="" style="strokeColor=#dddddd;shadow=1;strokeWidth=1;rounded=1;absoluteArcSize=1;arcSize=2;" vertex="1" parent="HGHsy-E57DKtYDnPdhEY-20">
          <mxGeometry y="140" width="260" height="60" as="geometry" />
        </mxCell>
        <mxCell id="HGHsy-E57DKtYDnPdhEY-12" value="解析图像坐标信息&#xa;WGS84" style="editableCssRules=.*;fontColor=#999999;shape=image;verticalLabelPosition=middle;labelBackgroundColor=#ffffff;verticalAlign=middle;labelPosition=right;align=left;spacingLeft=20;part=1;points=[];imageAspect=0;image=data:image/svg+xml,PHN2ZyB4bWxucz0iaHR0cDovL3d3dy53My5vcmcvMjAwMC9zdmciIHhtbG5zOnY9Imh0dHBzOi8vdmVjdGEuaW8vbmFubyIgd2lkdGg9IjE5LjkzMzEzNDA3ODk3OTQ5MiIgaGVpZ2h0PSIxMC44NjAwMDA2MTAzNTE1NjIiIHZpZXdCb3g9IjAuMDAwMDI2NTAxNDY0MTYyNzIwMzY3IC0zLjgxMjY2MDA1NDMzNjQ0NzVlLTggMTkuOTMzMTM0MDc4OTc5NDkyIDEwLjg2MDAwMDYxMDM1MTU2MiI+JiN4YTsJPHN0eWxlIHR5cGU9InRleHQvY3NzIj4mI3hhOwkuc3Qwe2ZpbGw6IzQyODVmNDt9JiN4YTsJLnN0MXtmaWxsOiM2NjlkZjY7fSYjeGE7CS5zdDJ7ZmlsbDojYWVjYmZhO30mI3hhOwk8L3N0eWxlPiYjeGE7CTxwYXRoIGNsYXNzPSJzdDAiIGQ9Ik0xOS41NjMgMEg3LjE5M2EuMzIuMzIgMCAwIDAtLjMyLjMzdjIuMTZhLjMyLjMyIDAgMCAwIC4zMi4zMmgxMi4zN2EuMzIuMzIgMCAwIDAgLjM3LS4zMlYuMzNhLjMyLjMyIDAgMCAwLS4zMS0uMzN6TTguNDIzIDIuMTRhLjcuNyAwIDEgMSAuNy0uN2gwYS43LjcgMCAwIDEtLjcuN3ptMTEuMTQgMS45SDcuMTkzYS4zMi4zMiAwIDAgMC0uMzIuMzJ2Mi4xNWEuMzIuMzIgMCAwIDAgLjMyLjMyaDEyLjM3YS4zMi4zMiAwIDAgMCAuMzItLjMyVjQuMzZhLjMyLjMyIDAgMCAwLS4zMi0uMzJ6TTguNDIzIDYuMThhLjcuNyAwIDEgMSAuNy0uN2gwYS43LjcgMCAwIDEtLjcuN3ptMTEuMTkgMS44N0g3LjI1M2EuMzIuMzIgMCAwIDAtLjMyLjMydjIuMTZhLjMyLjMyIDAgMCAwIC4zMi4zM2gxMi4zNmEuMzIuMzIgMCAwIDAgLjMyLS4zM1Y4LjM3YS4zMi4zMiAwIDAgMC0uMzItLjMyem0tMTEuMTQgMi4xM2EuNzEuNzEgMCAwIDEtLjctLjcxLjcxLjcxIDAgMCAxIDEuNDEgMCAuNzEuNzEgMCAwIDEtLjcxLjcxeiIvPiYjeGE7CTxwYXRoIGNsYXNzPSJzdDEiIGQ9Ik00LjY3MyAzLjI5aC0yLjEzYS44MTIuODEyIDAgMCAxLS4yMS0xLjYxaDIuMzRhLjgxNS44MTUgMCAxIDEgLjI2IDEuNjF6Ii8+JiN4YTsJPHBhdGggY2xhc3M9InN0MiIgZD0iTTQuNjczIDYuMjRILjg1M2EuODIuODIgMCAwIDEtLjIxLTEuNjJoNGEuODIzLjgyMyAwIDAgMSAuMjkgMS42MnoiLz4mI3hhOwk8cGF0aCBjbGFzcz0ic3QxIiBkPSJNNC42NzMgOS4xOGgtMi4xM2EuODEyLjgxMiAwIDAgMS0uMjEtMS42MWgyLjM0YS44MTUuODE1IDAgMCAxIC4yNiAxLjYxeiIvPiYjeGE7PC9zdmc+;" vertex="1" parent="HGHsy-E57DKtYDnPdhEY-11">
          <mxGeometry width="30" height="16" relative="1" as="geometry">
            <mxPoint x="15" y="22" as="offset" />
          </mxGeometry>
        </mxCell>
        <mxCell id="HGHsy-E57DKtYDnPdhEY-65" style="edgeStyle=orthogonalEdgeStyle;rounded=0;orthogonalLoop=1;jettySize=auto;html=1;exitX=1;exitY=0.5;exitDx=0;exitDy=0;entryX=0;entryY=0.515;entryDx=0;entryDy=0;entryPerimeter=0;fontFamily=Helvetica;fontSize=12;endArrow=blockThin;strokeColor=#4284F3;endFill=1;strokeWidth=2;endSize=4;startSize=4;dashed=0;" edge="1" parent="HGHsy-E57DKtYDnPdhEY-81" source="HGHsy-E57DKtYDnPdhEY-15" target="HGHsy-E57DKtYDnPdhEY-23">
          <mxGeometry relative="1" as="geometry" />
        </mxCell>
        <mxCell id="HGHsy-E57DKtYDnPdhEY-39" value="" style="group" vertex="1" connectable="0" parent="HGHsy-E57DKtYDnPdhEY-81">
          <mxGeometry x="610" y="230" width="420" height="270" as="geometry" />
        </mxCell>
        <mxCell id="HGHsy-E57DKtYDnPdhEY-38" value="openSFM（Structure From Motion）" style="sketch=0;points=[[0,0,0],[0.25,0,0],[0.5,0,0],[0.75,0,0],[1,0,0],[1,0.25,0],[1,0.5,0],[1,0.75,0],[1,1,0],[0.75,1,0],[0.5,1,0],[0.25,1,0],[0,1,0],[0,0.75,0],[0,0.5,0],[0,0.25,0]];rounded=1;absoluteArcSize=1;arcSize=2;html=1;strokeColor=none;gradientColor=none;shadow=0;dashed=0;fontSize=12;fontColor=#9E9E9E;align=left;verticalAlign=top;spacing=10;spacingTop=-4;fillColor=#F1F8E9;" vertex="1" parent="HGHsy-E57DKtYDnPdhEY-39">
          <mxGeometry width="420" height="270" as="geometry" />
        </mxCell>
        <mxCell id="HGHsy-E57DKtYDnPdhEY-37" value="" style="group" vertex="1" connectable="0" parent="HGHsy-E57DKtYDnPdhEY-39">
          <mxGeometry x="20" y="30" width="380" height="220" as="geometry" />
        </mxCell>
        <mxCell id="HGHsy-E57DKtYDnPdhEY-25" value="" style="strokeColor=#dddddd;shadow=1;strokeWidth=1;rounded=1;absoluteArcSize=1;arcSize=2;" vertex="1" parent="HGHsy-E57DKtYDnPdhEY-37">
          <mxGeometry width="180" height="60" as="geometry" />
        </mxCell>
        <mxCell id="HGHsy-E57DKtYDnPdhEY-26" value="覆写EXIF标签" style="editableCssRules=.*;fontColor=#999999;shape=image;verticalLabelPosition=middle;labelBackgroundColor=#ffffff;verticalAlign=middle;labelPosition=right;align=left;spacingLeft=20;part=1;points=[];imageAspect=0;image=data:image/svg+xml,PHN2ZyB4bWxucz0iaHR0cDovL3d3dy53My5vcmcvMjAwMC9zdmciIHhtbG5zOnY9Imh0dHBzOi8vdmVjdGEuaW8vbmFubyIgd2lkdGg9IjIwIiBoZWlnaHQ9IjIwIiB2aWV3Qm94PSIwIDAgMjAgMjAiPiYjeGE7CTxzdHlsZSB0eXBlPSJ0ZXh0L2NzcyI+JiN4YTsJLnN0MHtmaWxsOiM0Mjg1ZjQ7fSYjeGE7CS5zdDF7ZmlsbDojNjY5ZGY2O30mI3hhOwkuc3Qye2ZpbGw6I2FlY2JmYTt9JiN4YTsJPC9zdHlsZT4mI3hhOwk8cGF0aCBjbGFzcz0ic3QyIiBkPSJNNyA3aDZ2Nkg3eiIvPiYjeGE7CTxwYXRoIGNsYXNzPSJzdDEiIGQ9Ik05IDBoMnY0SDl6TTUgMGgydjRINXptOCAwaDJ2NGgtMnoiLz4mI3hhOwk8cGF0aCBjbGFzcz0ic3QwIiBkPSJNOSAxNmgydjRIOXptLTQgMGgydjRINXptOCAwaDJ2NGgtMnptMy01VjloNHYyem0wIDR2LTJoNHYyem0wLThWNWg0djJ6Ii8+JiN4YTsJPHBhdGggY2xhc3M9InN0MSIgZD0iTTAgMTFWOWg0djJ6bTAgNHYtMmg0djJ6bTAtOFY1aDR2MnoiLz4mI3hhOwk8cGF0aCBjbGFzcz0ic3QyIiBkPSJNMyAzdjE0aDE0VjN6bTEyIDEySDVWNWgxMHoiLz4mI3hhOwk8cGF0aCBjbGFzcz0ic3QxIiBkPSJNMTAgMTBsLTMgM2g2eiIvPiYjeGE7CTxwYXRoIGNsYXNzPSJzdDAiIGQ9Ik0xMyA3bC0zIDMgMyAzeiIvPiYjeGE7PC9zdmc+;" vertex="1" parent="HGHsy-E57DKtYDnPdhEY-25">
          <mxGeometry width="30" height="30" relative="1" as="geometry">
            <mxPoint x="15" y="15" as="offset" />
          </mxGeometry>
        </mxCell>
        <mxCell id="HGHsy-E57DKtYDnPdhEY-27" value="" style="strokeColor=#dddddd;shadow=1;strokeWidth=1;rounded=1;absoluteArcSize=1;arcSize=2;" vertex="1" parent="HGHsy-E57DKtYDnPdhEY-37">
          <mxGeometry y="80" width="180" height="60" as="geometry" />
        </mxCell>
        <mxCell id="HGHsy-E57DKtYDnPdhEY-28" value="识别最大相机维度&#xa;5472px" style="editableCssRules=.*;fontColor=#999999;shape=image;verticalLabelPosition=middle;labelBackgroundColor=#ffffff;verticalAlign=middle;labelPosition=right;align=left;spacingLeft=20;part=1;points=[];imageAspect=0;image=data:image/svg+xml,PHN2ZyB4bWxucz0iaHR0cDovL3d3dy53My5vcmcvMjAwMC9zdmciIHhtbG5zOnY9Imh0dHBzOi8vdmVjdGEuaW8vbmFubyIgd2lkdGg9IjIwIiBoZWlnaHQ9IjIwIiB2aWV3Qm94PSIwIDAgMjAgMjAiPiYjeGE7CTxzdHlsZSB0eXBlPSJ0ZXh0L2NzcyI+JiN4YTsJLnN0MHtmaWxsOiM0Mjg1ZjQ7fSYjeGE7CS5zdDF7ZmlsbDojNjY5ZGY2O30mI3hhOwkuc3Qye2ZpbGw6I2FlY2JmYTt9JiN4YTsJPC9zdHlsZT4mI3hhOwk8cGF0aCBjbGFzcz0ic3QyIiBkPSJNNyA3aDZ2Nkg3eiIvPiYjeGE7CTxwYXRoIGNsYXNzPSJzdDEiIGQ9Ik05IDBoMnY0SDl6TTUgMGgydjRINXptOCAwaDJ2NGgtMnoiLz4mI3hhOwk8cGF0aCBjbGFzcz0ic3QwIiBkPSJNOSAxNmgydjRIOXptLTQgMGgydjRINXptOCAwaDJ2NGgtMnptMy01VjloNHYyem0wIDR2LTJoNHYyem0wLThWNWg0djJ6Ii8+JiN4YTsJPHBhdGggY2xhc3M9InN0MSIgZD0iTTAgMTFWOWg0djJ6bTAgNHYtMmg0djJ6bTAtOFY1aDR2MnoiLz4mI3hhOwk8cGF0aCBjbGFzcz0ic3QyIiBkPSJNMyAzdjE0aDE0VjN6bTEyIDEySDVWNWgxMHoiLz4mI3hhOwk8cGF0aCBjbGFzcz0ic3QxIiBkPSJNMTAgMTBsLTMgM2g2eiIvPiYjeGE7CTxwYXRoIGNsYXNzPSJzdDAiIGQ9Ik0xMyA3bC0zIDMgMyAzeiIvPiYjeGE7PC9zdmc+;" vertex="1" parent="HGHsy-E57DKtYDnPdhEY-27">
          <mxGeometry width="30" height="30" relative="1" as="geometry">
            <mxPoint x="15" y="15" as="offset" />
          </mxGeometry>
        </mxCell>
        <mxCell id="HGHsy-E57DKtYDnPdhEY-29" value="" style="strokeColor=#dddddd;shadow=1;strokeWidth=1;rounded=1;absoluteArcSize=1;arcSize=2;" vertex="1" parent="HGHsy-E57DKtYDnPdhEY-37">
          <mxGeometry y="160" width="180" height="60" as="geometry" />
        </mxCell>
        <mxCell id="HGHsy-E57DKtYDnPdhEY-30" value="识别用于特征提取&#xa;的相机维度2736px" style="editableCssRules=.*;fontColor=#999999;shape=image;verticalLabelPosition=middle;labelBackgroundColor=#ffffff;verticalAlign=middle;labelPosition=right;align=left;spacingLeft=20;part=1;points=[];imageAspect=0;image=data:image/svg+xml,PHN2ZyB4bWxucz0iaHR0cDovL3d3dy53My5vcmcvMjAwMC9zdmciIHhtbG5zOnY9Imh0dHBzOi8vdmVjdGEuaW8vbmFubyIgd2lkdGg9IjIwIiBoZWlnaHQ9IjIwIiB2aWV3Qm94PSIwIDAgMjAgMjAiPiYjeGE7CTxzdHlsZSB0eXBlPSJ0ZXh0L2NzcyI+JiN4YTsJLnN0MHtmaWxsOiM0Mjg1ZjQ7fSYjeGE7CS5zdDF7ZmlsbDojNjY5ZGY2O30mI3hhOwkuc3Qye2ZpbGw6I2FlY2JmYTt9JiN4YTsJPC9zdHlsZT4mI3hhOwk8cGF0aCBjbGFzcz0ic3QyIiBkPSJNNyA3aDZ2Nkg3eiIvPiYjeGE7CTxwYXRoIGNsYXNzPSJzdDEiIGQ9Ik05IDBoMnY0SDl6TTUgMGgydjRINXptOCAwaDJ2NGgtMnoiLz4mI3hhOwk8cGF0aCBjbGFzcz0ic3QwIiBkPSJNOSAxNmgydjRIOXptLTQgMGgydjRINXptOCAwaDJ2NGgtMnptMy01VjloNHYyem0wIDR2LTJoNHYyem0wLThWNWg0djJ6Ii8+JiN4YTsJPHBhdGggY2xhc3M9InN0MSIgZD0iTTAgMTFWOWg0djJ6bTAgNHYtMmg0djJ6bTAtOFY1aDR2MnoiLz4mI3hhOwk8cGF0aCBjbGFzcz0ic3QyIiBkPSJNMyAzdjE0aDE0VjN6bTEyIDEySDVWNWgxMHoiLz4mI3hhOwk8cGF0aCBjbGFzcz0ic3QxIiBkPSJNMTAgMTBsLTMgM2g2eiIvPiYjeGE7CTxwYXRoIGNsYXNzPSJzdDAiIGQ9Ik0xMyA3bC0zIDMgMyAzeiIvPiYjeGE7PC9zdmc+;" vertex="1" parent="HGHsy-E57DKtYDnPdhEY-29">
          <mxGeometry width="30" height="30" relative="1" as="geometry">
            <mxPoint x="15" y="15" as="offset" />
          </mxGeometry>
        </mxCell>
        <mxCell id="HGHsy-E57DKtYDnPdhEY-31" value="" style="strokeColor=#dddddd;shadow=1;strokeWidth=1;rounded=1;absoluteArcSize=1;arcSize=2;" vertex="1" parent="HGHsy-E57DKtYDnPdhEY-37">
          <mxGeometry x="200" width="180" height="60" as="geometry" />
        </mxCell>
        <mxCell id="HGHsy-E57DKtYDnPdhEY-32" value="识别海拔信息&#xa;GPS校准" style="editableCssRules=.*;fontColor=#999999;shape=image;verticalLabelPosition=middle;labelBackgroundColor=#ffffff;verticalAlign=middle;labelPosition=right;align=left;spacingLeft=20;part=1;points=[];imageAspect=0;image=data:image/svg+xml,PHN2ZyB4bWxucz0iaHR0cDovL3d3dy53My5vcmcvMjAwMC9zdmciIHhtbG5zOnY9Imh0dHBzOi8vdmVjdGEuaW8vbmFubyIgd2lkdGg9IjIwIiBoZWlnaHQ9IjIwIiB2aWV3Qm94PSIwIDAgMjAgMjAiPiYjeGE7CTxzdHlsZSB0eXBlPSJ0ZXh0L2NzcyI+JiN4YTsJLnN0MHtmaWxsOiM0Mjg1ZjQ7fSYjeGE7CS5zdDF7ZmlsbDojNjY5ZGY2O30mI3hhOwkuc3Qye2ZpbGw6I2FlY2JmYTt9JiN4YTsJPC9zdHlsZT4mI3hhOwk8cGF0aCBjbGFzcz0ic3QyIiBkPSJNNyA3aDZ2Nkg3eiIvPiYjeGE7CTxwYXRoIGNsYXNzPSJzdDEiIGQ9Ik05IDBoMnY0SDl6TTUgMGgydjRINXptOCAwaDJ2NGgtMnoiLz4mI3hhOwk8cGF0aCBjbGFzcz0ic3QwIiBkPSJNOSAxNmgydjRIOXptLTQgMGgydjRINXptOCAwaDJ2NGgtMnptMy01VjloNHYyem0wIDR2LTJoNHYyem0wLThWNWg0djJ6Ii8+JiN4YTsJPHBhdGggY2xhc3M9InN0MSIgZD0iTTAgMTFWOWg0djJ6bTAgNHYtMmg0djJ6bTAtOFY1aDR2MnoiLz4mI3hhOwk8cGF0aCBjbGFzcz0ic3QyIiBkPSJNMyAzdjE0aDE0VjN6bTEyIDEySDVWNWgxMHoiLz4mI3hhOwk8cGF0aCBjbGFzcz0ic3QxIiBkPSJNMTAgMTBsLTMgM2g2eiIvPiYjeGE7CTxwYXRoIGNsYXNzPSJzdDAiIGQ9Ik0xMyA3bC0zIDMgMyAzeiIvPiYjeGE7PC9zdmc+;" vertex="1" parent="HGHsy-E57DKtYDnPdhEY-31">
          <mxGeometry width="30" height="30" relative="1" as="geometry">
            <mxPoint x="15" y="15" as="offset" />
          </mxGeometry>
        </mxCell>
        <mxCell id="HGHsy-E57DKtYDnPdhEY-33" value="" style="strokeColor=#dddddd;shadow=1;strokeWidth=1;rounded=1;absoluteArcSize=1;arcSize=2;" vertex="1" parent="HGHsy-E57DKtYDnPdhEY-37">
          <mxGeometry x="200" y="80" width="180" height="60" as="geometry" />
        </mxCell>
        <mxCell id="HGHsy-E57DKtYDnPdhEY-34" value="图像重建&#xa;sift特征重建 0.066&#xa;FLANN 特征点匹配" style="editableCssRules=.*;fontColor=#999999;shape=image;verticalLabelPosition=middle;labelBackgroundColor=#ffffff;verticalAlign=middle;labelPosition=right;align=left;spacingLeft=20;part=1;points=[];imageAspect=0;image=data:image/svg+xml,PHN2ZyB4bWxucz0iaHR0cDovL3d3dy53My5vcmcvMjAwMC9zdmciIHhtbG5zOnY9Imh0dHBzOi8vdmVjdGEuaW8vbmFubyIgd2lkdGg9IjIwIiBoZWlnaHQ9IjIwIiB2aWV3Qm94PSIwIDAgMjAgMjAiPiYjeGE7CTxzdHlsZSB0eXBlPSJ0ZXh0L2NzcyI+JiN4YTsJLnN0MHtmaWxsOiM0Mjg1ZjQ7fSYjeGE7CS5zdDF7ZmlsbDojNjY5ZGY2O30mI3hhOwkuc3Qye2ZpbGw6I2FlY2JmYTt9JiN4YTsJPC9zdHlsZT4mI3hhOwk8cGF0aCBjbGFzcz0ic3QyIiBkPSJNNyA3aDZ2Nkg3eiIvPiYjeGE7CTxwYXRoIGNsYXNzPSJzdDEiIGQ9Ik05IDBoMnY0SDl6TTUgMGgydjRINXptOCAwaDJ2NGgtMnoiLz4mI3hhOwk8cGF0aCBjbGFzcz0ic3QwIiBkPSJNOSAxNmgydjRIOXptLTQgMGgydjRINXptOCAwaDJ2NGgtMnptMy01VjloNHYyem0wIDR2LTJoNHYyem0wLThWNWg0djJ6Ii8+JiN4YTsJPHBhdGggY2xhc3M9InN0MSIgZD0iTTAgMTFWOWg0djJ6bTAgNHYtMmg0djJ6bTAtOFY1aDR2MnoiLz4mI3hhOwk8cGF0aCBjbGFzcz0ic3QyIiBkPSJNMyAzdjE0aDE0VjN6bTEyIDEySDVWNWgxMHoiLz4mI3hhOwk8cGF0aCBjbGFzcz0ic3QxIiBkPSJNMTAgMTBsLTMgM2g2eiIvPiYjeGE7CTxwYXRoIGNsYXNzPSJzdDAiIGQ9Ik0xMyA3bC0zIDMgMyAzeiIvPiYjeGE7PC9zdmc+;" vertex="1" parent="HGHsy-E57DKtYDnPdhEY-33">
          <mxGeometry width="30" height="30" relative="1" as="geometry">
            <mxPoint x="15" y="15" as="offset" />
          </mxGeometry>
        </mxCell>
        <mxCell id="HGHsy-E57DKtYDnPdhEY-35" value="" style="strokeColor=#dddddd;shadow=1;strokeWidth=1;rounded=1;absoluteArcSize=1;arcSize=2;" vertex="1" parent="HGHsy-E57DKtYDnPdhEY-37">
          <mxGeometry x="200" y="160" width="180" height="60" as="geometry" />
        </mxCell>
        <mxCell id="HGHsy-E57DKtYDnPdhEY-36" value="可视化" style="editableCssRules=.*;fontColor=#999999;shape=image;verticalLabelPosition=middle;labelBackgroundColor=#ffffff;verticalAlign=middle;labelPosition=right;align=left;spacingLeft=20;part=1;points=[];imageAspect=0;image=data:image/svg+xml,PHN2ZyB4bWxucz0iaHR0cDovL3d3dy53My5vcmcvMjAwMC9zdmciIHhtbG5zOnY9Imh0dHBzOi8vdmVjdGEuaW8vbmFubyIgd2lkdGg9IjIwIiBoZWlnaHQ9IjIwIiB2aWV3Qm94PSIwIDAgMjAgMjAiPiYjeGE7CTxzdHlsZSB0eXBlPSJ0ZXh0L2NzcyI+JiN4YTsJLnN0MHtmaWxsOiM0Mjg1ZjQ7fSYjeGE7CS5zdDF7ZmlsbDojNjY5ZGY2O30mI3hhOwkuc3Qye2ZpbGw6I2FlY2JmYTt9JiN4YTsJPC9zdHlsZT4mI3hhOwk8cGF0aCBjbGFzcz0ic3QyIiBkPSJNNyA3aDZ2Nkg3eiIvPiYjeGE7CTxwYXRoIGNsYXNzPSJzdDEiIGQ9Ik05IDBoMnY0SDl6TTUgMGgydjRINXptOCAwaDJ2NGgtMnoiLz4mI3hhOwk8cGF0aCBjbGFzcz0ic3QwIiBkPSJNOSAxNmgydjRIOXptLTQgMGgydjRINXptOCAwaDJ2NGgtMnptMy01VjloNHYyem0wIDR2LTJoNHYyem0wLThWNWg0djJ6Ii8+JiN4YTsJPHBhdGggY2xhc3M9InN0MSIgZD0iTTAgMTFWOWg0djJ6bTAgNHYtMmg0djJ6bTAtOFY1aDR2MnoiLz4mI3hhOwk8cGF0aCBjbGFzcz0ic3QyIiBkPSJNMyAzdjE0aDE0VjN6bTEyIDEySDVWNWgxMHoiLz4mI3hhOwk8cGF0aCBjbGFzcz0ic3QxIiBkPSJNMTAgMTBsLTMgM2g2eiIvPiYjeGE7CTxwYXRoIGNsYXNzPSJzdDAiIGQ9Ik0xMyA3bC0zIDMgMyAzeiIvPiYjeGE7PC9zdmc+;" vertex="1" parent="HGHsy-E57DKtYDnPdhEY-35">
          <mxGeometry width="30" height="30" relative="1" as="geometry">
            <mxPoint x="15" y="15" as="offset" />
          </mxGeometry>
        </mxCell>
        <mxCell id="HGHsy-E57DKtYDnPdhEY-40" value="" style="shape=mxgraph.gcp2.doubleRect;strokeColor=#dddddd;shadow=1;strokeWidth=1;rounded=1;absoluteArcSize=1;arcSize=2;" vertex="1" parent="HGHsy-E57DKtYDnPdhEY-81">
          <mxGeometry x="300" y="331" width="260" height="68" as="geometry" />
        </mxCell>
        <mxCell id="HGHsy-E57DKtYDnPdhEY-41" value="&lt;font color=&quot;#000000&quot;&gt;openMVS&lt;br&gt;&lt;/font&gt;Multi-View-Stereo-reconstruction&lt;br&gt;openSFM -&amp;gt; 点云" style="editableCssRules=.*;html=1;fontColor=#999999;shape=image;verticalLabelPosition=middle;labelBackgroundColor=#ffffff;verticalAlign=middle;labelPosition=right;align=left;spacingLeft=20;part=1;points=[];imageAspect=0;image=data:image/svg+xml,PHN2ZyB4bWxucz0iaHR0cDovL3d3dy53My5vcmcvMjAwMC9zdmciIHhtbG5zOnY9Imh0dHBzOi8vdmVjdGEuaW8vbmFubyIgd2lkdGg9IjIwIiBoZWlnaHQ9IjE5Ljk4OTk5OTc3MTExODE2NCIgdmlld0JveD0iMCAwIDIwIDE5Ljk4OTk5OTc3MTExODE2NCI+JiN4YTsJPHN0eWxlIHR5cGU9InRleHQvY3NzIj4mI3hhOwkuc3Qwe2ZpbGw6IzQyODVmNDt9JiN4YTsJLnN0MXtmaWxsOiM2NjlkZjY7fSYjeGE7CS5zdDJ7ZmlsbDojYWVjYmZhO30mI3hhOwk8L3N0eWxlPiYjeGE7CTxwYXRoIGNsYXNzPSJzdDEiIGQ9Ik0zIDMuOTlMMCA2LjQydjcuMTNsMyAyLjQ0eiIvPiYjeGE7CTxwYXRoIGNsYXNzPSJzdDAiIGQ9Ik0zIDMuOTlsLTMgNCAzLTJ6bS0zIDhsMyA0di0yeiIvPiYjeGE7CTxwYXRoIGNsYXNzPSJzdDIiIGQ9Ik0wIDE1Ljk5bDQgNCAyLTItNi02em0uMDEtOEw1Ljk5IDJsLTItMkwwIDMuOTl6Ii8+JiN4YTsJPHBhdGggY2xhc3M9InN0MSIgZD0iTTE3IDE2bDMtMi40MlY2LjQ0TDE3IDR6Ii8+JiN4YTsJPHBhdGggY2xhc3M9InN0MCIgZD0iTTE3IDE2bDMtNC0zIDJ6bTMtOGwtMy00djJ6Ii8+JiN4YTsJPGcgY2xhc3M9InN0MiI+JiN4YTsJCTxwYXRoIGQ9Ik0yMCA0bC00LTQtMiAyIDYgNnptLS4wMSA4bC01Ljk4IDUuOTkgMiAyTDIwIDE2eiIvPiYjeGE7CQk8Y2lyY2xlIGN4PSI2IiBjeT0iOS45OSIgcj0iMSIvPiYjeGE7CQk8Y2lyY2xlIGN4PSIxMCIgY3k9IjkuOTkiIHI9IjEiLz4mI3hhOwkJPGNpcmNsZSBjeD0iMTMuOTkiIGN5PSI5Ljk5IiByPSIxIi8+JiN4YTsJPC9nPiYjeGE7PC9zdmc+;" vertex="1" parent="HGHsy-E57DKtYDnPdhEY-40">
          <mxGeometry width="30" height="24" relative="1" as="geometry">
            <mxPoint x="15" y="18" as="offset" />
          </mxGeometry>
        </mxCell>
        <mxCell id="HGHsy-E57DKtYDnPdhEY-69" style="edgeStyle=orthogonalEdgeStyle;rounded=0;orthogonalLoop=1;jettySize=auto;html=1;exitX=0.5;exitY=1;exitDx=0;exitDy=0;entryX=0.69;entryY=-0.003;entryDx=0;entryDy=0;entryPerimeter=0;fontFamily=Helvetica;fontSize=12;endArrow=blockThin;strokeColor=#4284F3;endFill=1;strokeWidth=2;endSize=4;startSize=4;dashed=0;" edge="1" parent="HGHsy-E57DKtYDnPdhEY-81" source="HGHsy-E57DKtYDnPdhEY-21" target="HGHsy-E57DKtYDnPdhEY-38">
          <mxGeometry relative="1" as="geometry" />
        </mxCell>
        <mxCell id="HGHsy-E57DKtYDnPdhEY-46" value="" style="shape=mxgraph.gcp2.doubleRect;strokeColor=#dddddd;shadow=1;strokeWidth=1;rounded=1;absoluteArcSize=1;arcSize=2;" vertex="1" parent="HGHsy-E57DKtYDnPdhEY-81">
          <mxGeometry y="331" width="260" height="68" as="geometry" />
        </mxCell>
        <mxCell id="HGHsy-E57DKtYDnPdhEY-47" value="&lt;font color=&quot;#000000&quot;&gt;odm-filterpoints&lt;br&gt;&lt;/font&gt;点过滤" style="editableCssRules=.*;html=1;fontColor=#999999;shape=image;verticalLabelPosition=middle;labelBackgroundColor=#ffffff;verticalAlign=middle;labelPosition=right;align=left;spacingLeft=20;part=1;points=[];imageAspect=0;image=data:image/svg+xml,PHN2ZyB4bWxucz0iaHR0cDovL3d3dy53My5vcmcvMjAwMC9zdmciIHhtbG5zOnY9Imh0dHBzOi8vdmVjdGEuaW8vbmFubyIgd2lkdGg9IjIwIiBoZWlnaHQ9IjE5Ljk4OTk5OTc3MTExODE2NCIgdmlld0JveD0iMCAwIDIwIDE5Ljk4OTk5OTc3MTExODE2NCI+JiN4YTsJPHN0eWxlIHR5cGU9InRleHQvY3NzIj4mI3hhOwkuc3Qwe2ZpbGw6IzQyODVmNDt9JiN4YTsJLnN0MXtmaWxsOiM2NjlkZjY7fSYjeGE7CS5zdDJ7ZmlsbDojYWVjYmZhO30mI3hhOwk8L3N0eWxlPiYjeGE7CTxwYXRoIGNsYXNzPSJzdDEiIGQ9Ik0zIDMuOTlMMCA2LjQydjcuMTNsMyAyLjQ0eiIvPiYjeGE7CTxwYXRoIGNsYXNzPSJzdDAiIGQ9Ik0zIDMuOTlsLTMgNCAzLTJ6bS0zIDhsMyA0di0yeiIvPiYjeGE7CTxwYXRoIGNsYXNzPSJzdDIiIGQ9Ik0wIDE1Ljk5bDQgNCAyLTItNi02em0uMDEtOEw1Ljk5IDJsLTItMkwwIDMuOTl6Ii8+JiN4YTsJPHBhdGggY2xhc3M9InN0MSIgZD0iTTE3IDE2bDMtMi40MlY2LjQ0TDE3IDR6Ii8+JiN4YTsJPHBhdGggY2xhc3M9InN0MCIgZD0iTTE3IDE2bDMtNC0zIDJ6bTMtOGwtMy00djJ6Ii8+JiN4YTsJPGcgY2xhc3M9InN0MiI+JiN4YTsJCTxwYXRoIGQ9Ik0yMCA0bC00LTQtMiAyIDYgNnptLS4wMSA4bC01Ljk4IDUuOTkgMiAyTDIwIDE2eiIvPiYjeGE7CQk8Y2lyY2xlIGN4PSI2IiBjeT0iOS45OSIgcj0iMSIvPiYjeGE7CQk8Y2lyY2xlIGN4PSIxMCIgY3k9IjkuOTkiIHI9IjEiLz4mI3hhOwkJPGNpcmNsZSBjeD0iMTMuOTkiIGN5PSI5Ljk5IiByPSIxIi8+JiN4YTsJPC9nPiYjeGE7PC9zdmc+;" vertex="1" parent="HGHsy-E57DKtYDnPdhEY-46">
          <mxGeometry width="30" height="24" relative="1" as="geometry">
            <mxPoint x="15" y="18" as="offset" />
          </mxGeometry>
        </mxCell>
        <mxCell id="HGHsy-E57DKtYDnPdhEY-48" value="" style="shape=mxgraph.gcp2.doubleRect;strokeColor=#dddddd;shadow=1;strokeWidth=1;rounded=1;absoluteArcSize=1;arcSize=2;" vertex="1" parent="HGHsy-E57DKtYDnPdhEY-81">
          <mxGeometry y="540" width="260" height="68" as="geometry" />
        </mxCell>
        <mxCell id="HGHsy-E57DKtYDnPdhEY-49" value="&lt;font color=&quot;#000000&quot;&gt;odm-meshing&lt;br&gt;&lt;/font&gt;进行点云三角网化" style="editableCssRules=.*;html=1;fontColor=#999999;shape=image;verticalLabelPosition=middle;labelBackgroundColor=#ffffff;verticalAlign=middle;labelPosition=right;align=left;spacingLeft=20;part=1;points=[];imageAspect=0;image=data:image/svg+xml,PHN2ZyB4bWxucz0iaHR0cDovL3d3dy53My5vcmcvMjAwMC9zdmciIHhtbG5zOnY9Imh0dHBzOi8vdmVjdGEuaW8vbmFubyIgd2lkdGg9IjIwIiBoZWlnaHQ9IjE5Ljk4OTk5OTc3MTExODE2NCIgdmlld0JveD0iMCAwIDIwIDE5Ljk4OTk5OTc3MTExODE2NCI+JiN4YTsJPHN0eWxlIHR5cGU9InRleHQvY3NzIj4mI3hhOwkuc3Qwe2ZpbGw6IzQyODVmNDt9JiN4YTsJLnN0MXtmaWxsOiM2NjlkZjY7fSYjeGE7CS5zdDJ7ZmlsbDojYWVjYmZhO30mI3hhOwk8L3N0eWxlPiYjeGE7CTxwYXRoIGNsYXNzPSJzdDEiIGQ9Ik0zIDMuOTlMMCA2LjQydjcuMTNsMyAyLjQ0eiIvPiYjeGE7CTxwYXRoIGNsYXNzPSJzdDAiIGQ9Ik0zIDMuOTlsLTMgNCAzLTJ6bS0zIDhsMyA0di0yeiIvPiYjeGE7CTxwYXRoIGNsYXNzPSJzdDIiIGQ9Ik0wIDE1Ljk5bDQgNCAyLTItNi02em0uMDEtOEw1Ljk5IDJsLTItMkwwIDMuOTl6Ii8+JiN4YTsJPHBhdGggY2xhc3M9InN0MSIgZD0iTTE3IDE2bDMtMi40MlY2LjQ0TDE3IDR6Ii8+JiN4YTsJPHBhdGggY2xhc3M9InN0MCIgZD0iTTE3IDE2bDMtNC0zIDJ6bTMtOGwtMy00djJ6Ii8+JiN4YTsJPGcgY2xhc3M9InN0MiI+JiN4YTsJCTxwYXRoIGQ9Ik0yMCA0bC00LTQtMiAyIDYgNnptLS4wMSA4bC01Ljk4IDUuOTkgMiAyTDIwIDE2eiIvPiYjeGE7CQk8Y2lyY2xlIGN4PSI2IiBjeT0iOS45OSIgcj0iMSIvPiYjeGE7CQk8Y2lyY2xlIGN4PSIxMCIgY3k9IjkuOTkiIHI9IjEiLz4mI3hhOwkJPGNpcmNsZSBjeD0iMTMuOTkiIGN5PSI5Ljk5IiByPSIxIi8+JiN4YTsJPC9nPiYjeGE7PC9zdmc+;" vertex="1" parent="HGHsy-E57DKtYDnPdhEY-48">
          <mxGeometry width="30" height="24" relative="1" as="geometry">
            <mxPoint x="15" y="18" as="offset" />
          </mxGeometry>
        </mxCell>
        <mxCell id="HGHsy-E57DKtYDnPdhEY-71" style="edgeStyle=orthogonalEdgeStyle;rounded=0;orthogonalLoop=1;jettySize=auto;html=1;exitX=0;exitY=0.5;exitDx=0;exitDy=0;entryX=1;entryY=0.5;entryDx=0;entryDy=0;fontFamily=Helvetica;fontSize=12;endArrow=blockThin;strokeColor=#4284F3;endFill=1;strokeWidth=2;endSize=4;startSize=4;dashed=0;" edge="1" parent="HGHsy-E57DKtYDnPdhEY-81" source="HGHsy-E57DKtYDnPdhEY-40" target="HGHsy-E57DKtYDnPdhEY-46">
          <mxGeometry relative="1" as="geometry" />
        </mxCell>
        <mxCell id="HGHsy-E57DKtYDnPdhEY-50" value="" style="shape=mxgraph.gcp2.doubleRect;strokeColor=#dddddd;shadow=1;strokeWidth=1;rounded=1;absoluteArcSize=1;arcSize=2;" vertex="1" parent="HGHsy-E57DKtYDnPdhEY-81">
          <mxGeometry x="280" y="540" width="260" height="68" as="geometry" />
        </mxCell>
        <mxCell id="HGHsy-E57DKtYDnPdhEY-51" value="&lt;font color=&quot;#000000&quot;&gt;PoissonRecon&lt;br&gt;&lt;/font&gt;模型重建" style="editableCssRules=.*;html=1;fontColor=#999999;shape=image;verticalLabelPosition=middle;labelBackgroundColor=#ffffff;verticalAlign=middle;labelPosition=right;align=left;spacingLeft=20;part=1;points=[];imageAspect=0;image=data:image/svg+xml,PHN2ZyB4bWxucz0iaHR0cDovL3d3dy53My5vcmcvMjAwMC9zdmciIHhtbG5zOnY9Imh0dHBzOi8vdmVjdGEuaW8vbmFubyIgd2lkdGg9IjIwIiBoZWlnaHQ9IjE5Ljk4OTk5OTc3MTExODE2NCIgdmlld0JveD0iMCAwIDIwIDE5Ljk4OTk5OTc3MTExODE2NCI+JiN4YTsJPHN0eWxlIHR5cGU9InRleHQvY3NzIj4mI3hhOwkuc3Qwe2ZpbGw6IzQyODVmNDt9JiN4YTsJLnN0MXtmaWxsOiM2NjlkZjY7fSYjeGE7CS5zdDJ7ZmlsbDojYWVjYmZhO30mI3hhOwk8L3N0eWxlPiYjeGE7CTxwYXRoIGNsYXNzPSJzdDEiIGQ9Ik0zIDMuOTlMMCA2LjQydjcuMTNsMyAyLjQ0eiIvPiYjeGE7CTxwYXRoIGNsYXNzPSJzdDAiIGQ9Ik0zIDMuOTlsLTMgNCAzLTJ6bS0zIDhsMyA0di0yeiIvPiYjeGE7CTxwYXRoIGNsYXNzPSJzdDIiIGQ9Ik0wIDE1Ljk5bDQgNCAyLTItNi02em0uMDEtOEw1Ljk5IDJsLTItMkwwIDMuOTl6Ii8+JiN4YTsJPHBhdGggY2xhc3M9InN0MSIgZD0iTTE3IDE2bDMtMi40MlY2LjQ0TDE3IDR6Ii8+JiN4YTsJPHBhdGggY2xhc3M9InN0MCIgZD0iTTE3IDE2bDMtNC0zIDJ6bTMtOGwtMy00djJ6Ii8+JiN4YTsJPGcgY2xhc3M9InN0MiI+JiN4YTsJCTxwYXRoIGQ9Ik0yMCA0bC00LTQtMiAyIDYgNnptLS4wMSA4bC01Ljk4IDUuOTkgMiAyTDIwIDE2eiIvPiYjeGE7CQk8Y2lyY2xlIGN4PSI2IiBjeT0iOS45OSIgcj0iMSIvPiYjeGE7CQk8Y2lyY2xlIGN4PSIxMCIgY3k9IjkuOTkiIHI9IjEiLz4mI3hhOwkJPGNpcmNsZSBjeD0iMTMuOTkiIGN5PSI5Ljk5IiByPSIxIi8+JiN4YTsJPC9nPiYjeGE7PC9zdmc+;" vertex="1" parent="HGHsy-E57DKtYDnPdhEY-50">
          <mxGeometry width="30" height="24" relative="1" as="geometry">
            <mxPoint x="15" y="18" as="offset" />
          </mxGeometry>
        </mxCell>
        <mxCell id="HGHsy-E57DKtYDnPdhEY-74" style="edgeStyle=orthogonalEdgeStyle;rounded=0;orthogonalLoop=1;jettySize=auto;html=1;exitX=0.5;exitY=1;exitDx=0;exitDy=0;entryX=0.5;entryY=0;entryDx=0;entryDy=0;fontFamily=Helvetica;fontSize=12;endArrow=blockThin;strokeColor=#4284F3;endFill=1;strokeWidth=2;endSize=4;startSize=4;dashed=0;" edge="1" parent="HGHsy-E57DKtYDnPdhEY-81" source="HGHsy-E57DKtYDnPdhEY-46" target="HGHsy-E57DKtYDnPdhEY-48">
          <mxGeometry relative="1" as="geometry" />
        </mxCell>
        <mxCell id="HGHsy-E57DKtYDnPdhEY-52" value="" style="shape=mxgraph.gcp2.doubleRect;strokeColor=#dddddd;shadow=1;strokeWidth=1;rounded=1;absoluteArcSize=1;arcSize=2;" vertex="1" parent="HGHsy-E57DKtYDnPdhEY-81">
          <mxGeometry x="570" y="540" width="180" height="68" as="geometry" />
        </mxCell>
        <mxCell id="HGHsy-E57DKtYDnPdhEY-53" value="&lt;font color=&quot;#000000&quot;&gt;openMVS&lt;br&gt;&lt;/font&gt;模型重建" style="editableCssRules=.*;html=1;fontColor=#999999;shape=image;verticalLabelPosition=middle;labelBackgroundColor=#ffffff;verticalAlign=middle;labelPosition=right;align=left;spacingLeft=20;part=1;points=[];imageAspect=0;image=data:image/svg+xml,PHN2ZyB4bWxucz0iaHR0cDovL3d3dy53My5vcmcvMjAwMC9zdmciIHhtbG5zOnY9Imh0dHBzOi8vdmVjdGEuaW8vbmFubyIgd2lkdGg9IjIwIiBoZWlnaHQ9IjE5Ljk4OTk5OTc3MTExODE2NCIgdmlld0JveD0iMCAwIDIwIDE5Ljk4OTk5OTc3MTExODE2NCI+JiN4YTsJPHN0eWxlIHR5cGU9InRleHQvY3NzIj4mI3hhOwkuc3Qwe2ZpbGw6IzQyODVmNDt9JiN4YTsJLnN0MXtmaWxsOiM2NjlkZjY7fSYjeGE7CS5zdDJ7ZmlsbDojYWVjYmZhO30mI3hhOwk8L3N0eWxlPiYjeGE7CTxwYXRoIGNsYXNzPSJzdDEiIGQ9Ik0zIDMuOTlMMCA2LjQydjcuMTNsMyAyLjQ0eiIvPiYjeGE7CTxwYXRoIGNsYXNzPSJzdDAiIGQ9Ik0zIDMuOTlsLTMgNCAzLTJ6bS0zIDhsMyA0di0yeiIvPiYjeGE7CTxwYXRoIGNsYXNzPSJzdDIiIGQ9Ik0wIDE1Ljk5bDQgNCAyLTItNi02em0uMDEtOEw1Ljk5IDJsLTItMkwwIDMuOTl6Ii8+JiN4YTsJPHBhdGggY2xhc3M9InN0MSIgZD0iTTE3IDE2bDMtMi40MlY2LjQ0TDE3IDR6Ii8+JiN4YTsJPHBhdGggY2xhc3M9InN0MCIgZD0iTTE3IDE2bDMtNC0zIDJ6bTMtOGwtMy00djJ6Ii8+JiN4YTsJPGcgY2xhc3M9InN0MiI+JiN4YTsJCTxwYXRoIGQ9Ik0yMCA0bC00LTQtMiAyIDYgNnptLS4wMSA4bC01Ljk4IDUuOTkgMiAyTDIwIDE2eiIvPiYjeGE7CQk8Y2lyY2xlIGN4PSI2IiBjeT0iOS45OSIgcj0iMSIvPiYjeGE7CQk8Y2lyY2xlIGN4PSIxMCIgY3k9IjkuOTkiIHI9IjEiLz4mI3hhOwkJPGNpcmNsZSBjeD0iMTMuOTkiIGN5PSI5Ljk5IiByPSIxIi8+JiN4YTsJPC9nPiYjeGE7PC9zdmc+;" vertex="1" parent="HGHsy-E57DKtYDnPdhEY-52">
          <mxGeometry width="30" height="24" relative="1" as="geometry">
            <mxPoint x="15" y="18" as="offset" />
          </mxGeometry>
        </mxCell>
        <mxCell id="HGHsy-E57DKtYDnPdhEY-73" style="edgeStyle=orthogonalEdgeStyle;rounded=0;orthogonalLoop=1;jettySize=auto;html=1;exitX=1;exitY=0.5;exitDx=0;exitDy=0;entryX=-0.009;entryY=0.507;entryDx=0;entryDy=0;entryPerimeter=0;fontFamily=Helvetica;fontSize=12;endArrow=blockThin;strokeColor=#4284F3;endFill=1;strokeWidth=2;endSize=4;startSize=4;dashed=0;" edge="1" parent="HGHsy-E57DKtYDnPdhEY-81" source="HGHsy-E57DKtYDnPdhEY-48" target="HGHsy-E57DKtYDnPdhEY-50">
          <mxGeometry relative="1" as="geometry" />
        </mxCell>
        <mxCell id="HGHsy-E57DKtYDnPdhEY-54" value="" style="shape=mxgraph.gcp2.doubleRect;strokeColor=#dddddd;shadow=1;strokeWidth=1;rounded=1;absoluteArcSize=1;arcSize=2;" vertex="1" parent="HGHsy-E57DKtYDnPdhEY-81">
          <mxGeometry x="780" y="540" width="260" height="68" as="geometry" />
        </mxCell>
        <mxCell id="HGHsy-E57DKtYDnPdhEY-55" value="&lt;font color=&quot;#000000&quot;&gt;gdal 转化&lt;br&gt;&lt;/font&gt;gdal 系列生成 dsm / dtm" style="editableCssRules=.*;html=1;fontColor=#999999;shape=image;verticalLabelPosition=middle;labelBackgroundColor=#ffffff;verticalAlign=middle;labelPosition=right;align=left;spacingLeft=20;part=1;points=[];imageAspect=0;image=data:image/svg+xml,PHN2ZyB4bWxucz0iaHR0cDovL3d3dy53My5vcmcvMjAwMC9zdmciIHhtbG5zOnY9Imh0dHBzOi8vdmVjdGEuaW8vbmFubyIgd2lkdGg9IjIwIiBoZWlnaHQ9IjE5Ljk4OTk5OTc3MTExODE2NCIgdmlld0JveD0iMCAwIDIwIDE5Ljk4OTk5OTc3MTExODE2NCI+JiN4YTsJPHN0eWxlIHR5cGU9InRleHQvY3NzIj4mI3hhOwkuc3Qwe2ZpbGw6IzQyODVmNDt9JiN4YTsJLnN0MXtmaWxsOiM2NjlkZjY7fSYjeGE7CS5zdDJ7ZmlsbDojYWVjYmZhO30mI3hhOwk8L3N0eWxlPiYjeGE7CTxwYXRoIGNsYXNzPSJzdDEiIGQ9Ik0zIDMuOTlMMCA2LjQydjcuMTNsMyAyLjQ0eiIvPiYjeGE7CTxwYXRoIGNsYXNzPSJzdDAiIGQ9Ik0zIDMuOTlsLTMgNCAzLTJ6bS0zIDhsMyA0di0yeiIvPiYjeGE7CTxwYXRoIGNsYXNzPSJzdDIiIGQ9Ik0wIDE1Ljk5bDQgNCAyLTItNi02em0uMDEtOEw1Ljk5IDJsLTItMkwwIDMuOTl6Ii8+JiN4YTsJPHBhdGggY2xhc3M9InN0MSIgZD0iTTE3IDE2bDMtMi40MlY2LjQ0TDE3IDR6Ii8+JiN4YTsJPHBhdGggY2xhc3M9InN0MCIgZD0iTTE3IDE2bDMtNC0zIDJ6bTMtOGwtMy00djJ6Ii8+JiN4YTsJPGcgY2xhc3M9InN0MiI+JiN4YTsJCTxwYXRoIGQ9Ik0yMCA0bC00LTQtMiAyIDYgNnptLS4wMSA4bC01Ljk4IDUuOTkgMiAyTDIwIDE2eiIvPiYjeGE7CQk8Y2lyY2xlIGN4PSI2IiBjeT0iOS45OSIgcj0iMSIvPiYjeGE7CQk8Y2lyY2xlIGN4PSIxMCIgY3k9IjkuOTkiIHI9IjEiLz4mI3hhOwkJPGNpcmNsZSBjeD0iMTMuOTkiIGN5PSI5Ljk5IiByPSIxIi8+JiN4YTsJPC9nPiYjeGE7PC9zdmc+;" vertex="1" parent="HGHsy-E57DKtYDnPdhEY-54">
          <mxGeometry width="30" height="24" relative="1" as="geometry">
            <mxPoint x="15" y="18" as="offset" />
          </mxGeometry>
        </mxCell>
        <mxCell id="HGHsy-E57DKtYDnPdhEY-75" style="edgeStyle=orthogonalEdgeStyle;rounded=0;orthogonalLoop=1;jettySize=auto;html=1;exitX=1;exitY=0.5;exitDx=0;exitDy=0;entryX=0;entryY=0.5;entryDx=0;entryDy=0;fontFamily=Helvetica;fontSize=12;endArrow=blockThin;strokeColor=#4284F3;endFill=1;strokeWidth=2;endSize=4;startSize=4;dashed=0;" edge="1" parent="HGHsy-E57DKtYDnPdhEY-81" source="HGHsy-E57DKtYDnPdhEY-50" target="HGHsy-E57DKtYDnPdhEY-52">
          <mxGeometry relative="1" as="geometry" />
        </mxCell>
        <mxCell id="HGHsy-E57DKtYDnPdhEY-56" value="" style="shape=mxgraph.gcp2.doubleRect;strokeColor=#dddddd;shadow=1;strokeWidth=1;rounded=1;absoluteArcSize=1;arcSize=2;" vertex="1" parent="HGHsy-E57DKtYDnPdhEY-81">
          <mxGeometry x="780" y="660" width="260" height="68" as="geometry" />
        </mxCell>
        <mxCell id="HGHsy-E57DKtYDnPdhEY-57" value="&lt;font color=&quot;#000000&quot;&gt;openMVS 模型重建&lt;br&gt;&lt;/font&gt;构建三维材质纹理模型" style="editableCssRules=.*;html=1;fontColor=#999999;shape=image;verticalLabelPosition=middle;labelBackgroundColor=#ffffff;verticalAlign=middle;labelPosition=right;align=left;spacingLeft=20;part=1;points=[];imageAspect=0;image=data:image/svg+xml,PHN2ZyB4bWxucz0iaHR0cDovL3d3dy53My5vcmcvMjAwMC9zdmciIHhtbG5zOnY9Imh0dHBzOi8vdmVjdGEuaW8vbmFubyIgd2lkdGg9IjIwIiBoZWlnaHQ9IjE5Ljk4OTk5OTc3MTExODE2NCIgdmlld0JveD0iMCAwIDIwIDE5Ljk4OTk5OTc3MTExODE2NCI+JiN4YTsJPHN0eWxlIHR5cGU9InRleHQvY3NzIj4mI3hhOwkuc3Qwe2ZpbGw6IzQyODVmNDt9JiN4YTsJLnN0MXtmaWxsOiM2NjlkZjY7fSYjeGE7CS5zdDJ7ZmlsbDojYWVjYmZhO30mI3hhOwk8L3N0eWxlPiYjeGE7CTxwYXRoIGNsYXNzPSJzdDEiIGQ9Ik0zIDMuOTlMMCA2LjQydjcuMTNsMyAyLjQ0eiIvPiYjeGE7CTxwYXRoIGNsYXNzPSJzdDAiIGQ9Ik0zIDMuOTlsLTMgNCAzLTJ6bS0zIDhsMyA0di0yeiIvPiYjeGE7CTxwYXRoIGNsYXNzPSJzdDIiIGQ9Ik0wIDE1Ljk5bDQgNCAyLTItNi02em0uMDEtOEw1Ljk5IDJsLTItMkwwIDMuOTl6Ii8+JiN4YTsJPHBhdGggY2xhc3M9InN0MSIgZD0iTTE3IDE2bDMtMi40MlY2LjQ0TDE3IDR6Ii8+JiN4YTsJPHBhdGggY2xhc3M9InN0MCIgZD0iTTE3IDE2bDMtNC0zIDJ6bTMtOGwtMy00djJ6Ii8+JiN4YTsJPGcgY2xhc3M9InN0MiI+JiN4YTsJCTxwYXRoIGQ9Ik0yMCA0bC00LTQtMiAyIDYgNnptLS4wMSA4bC01Ljk4IDUuOTkgMiAyTDIwIDE2eiIvPiYjeGE7CQk8Y2lyY2xlIGN4PSI2IiBjeT0iOS45OSIgcj0iMSIvPiYjeGE7CQk8Y2lyY2xlIGN4PSIxMCIgY3k9IjkuOTkiIHI9IjEiLz4mI3hhOwkJPGNpcmNsZSBjeD0iMTMuOTkiIGN5PSI5Ljk5IiByPSIxIi8+JiN4YTsJPC9nPiYjeGE7PC9zdmc+;" vertex="1" parent="HGHsy-E57DKtYDnPdhEY-56">
          <mxGeometry width="30" height="24" relative="1" as="geometry">
            <mxPoint x="15" y="18" as="offset" />
          </mxGeometry>
        </mxCell>
        <mxCell id="HGHsy-E57DKtYDnPdhEY-76" style="edgeStyle=orthogonalEdgeStyle;rounded=0;orthogonalLoop=1;jettySize=auto;html=1;exitX=1;exitY=0.5;exitDx=0;exitDy=0;entryX=0;entryY=0.5;entryDx=0;entryDy=0;fontFamily=Helvetica;fontSize=12;endArrow=blockThin;strokeColor=#4284F3;endFill=1;strokeWidth=2;endSize=4;startSize=4;dashed=0;" edge="1" parent="HGHsy-E57DKtYDnPdhEY-81" source="HGHsy-E57DKtYDnPdhEY-52" target="HGHsy-E57DKtYDnPdhEY-54">
          <mxGeometry relative="1" as="geometry" />
        </mxCell>
        <mxCell id="HGHsy-E57DKtYDnPdhEY-58" value="" style="shape=mxgraph.gcp2.doubleRect;strokeColor=#dddddd;shadow=1;strokeWidth=1;rounded=1;absoluteArcSize=1;arcSize=2;" vertex="1" parent="HGHsy-E57DKtYDnPdhEY-81">
          <mxGeometry x="570" y="660" width="200" height="68" as="geometry" />
        </mxCell>
        <mxCell id="HGHsy-E57DKtYDnPdhEY-59" value="&lt;font color=&quot;#000000&quot;&gt;odm-georeferencing&lt;br&gt;&lt;/font&gt;地理坐标参考校准阶段" style="editableCssRules=.*;html=1;fontColor=#999999;shape=image;verticalLabelPosition=middle;labelBackgroundColor=#ffffff;verticalAlign=middle;labelPosition=right;align=left;spacingLeft=20;part=1;points=[];imageAspect=0;image=data:image/svg+xml,PHN2ZyB4bWxucz0iaHR0cDovL3d3dy53My5vcmcvMjAwMC9zdmciIHhtbG5zOnY9Imh0dHBzOi8vdmVjdGEuaW8vbmFubyIgd2lkdGg9IjIwIiBoZWlnaHQ9IjE5Ljk4OTk5OTc3MTExODE2NCIgdmlld0JveD0iMCAwIDIwIDE5Ljk4OTk5OTc3MTExODE2NCI+JiN4YTsJPHN0eWxlIHR5cGU9InRleHQvY3NzIj4mI3hhOwkuc3Qwe2ZpbGw6IzQyODVmNDt9JiN4YTsJLnN0MXtmaWxsOiM2NjlkZjY7fSYjeGE7CS5zdDJ7ZmlsbDojYWVjYmZhO30mI3hhOwk8L3N0eWxlPiYjeGE7CTxwYXRoIGNsYXNzPSJzdDEiIGQ9Ik0zIDMuOTlMMCA2LjQydjcuMTNsMyAyLjQ0eiIvPiYjeGE7CTxwYXRoIGNsYXNzPSJzdDAiIGQ9Ik0zIDMuOTlsLTMgNCAzLTJ6bS0zIDhsMyA0di0yeiIvPiYjeGE7CTxwYXRoIGNsYXNzPSJzdDIiIGQ9Ik0wIDE1Ljk5bDQgNCAyLTItNi02em0uMDEtOEw1Ljk5IDJsLTItMkwwIDMuOTl6Ii8+JiN4YTsJPHBhdGggY2xhc3M9InN0MSIgZD0iTTE3IDE2bDMtMi40MlY2LjQ0TDE3IDR6Ii8+JiN4YTsJPHBhdGggY2xhc3M9InN0MCIgZD0iTTE3IDE2bDMtNC0zIDJ6bTMtOGwtMy00djJ6Ii8+JiN4YTsJPGcgY2xhc3M9InN0MiI+JiN4YTsJCTxwYXRoIGQ9Ik0yMCA0bC00LTQtMiAyIDYgNnptLS4wMSA4bC01Ljk4IDUuOTkgMiAyTDIwIDE2eiIvPiYjeGE7CQk8Y2lyY2xlIGN4PSI2IiBjeT0iOS45OSIgcj0iMSIvPiYjeGE7CQk8Y2lyY2xlIGN4PSIxMCIgY3k9IjkuOTkiIHI9IjEiLz4mI3hhOwkJPGNpcmNsZSBjeD0iMTMuOTkiIGN5PSI5Ljk5IiByPSIxIi8+JiN4YTsJPC9nPiYjeGE7PC9zdmc+;" vertex="1" parent="HGHsy-E57DKtYDnPdhEY-58">
          <mxGeometry width="30" height="24" relative="1" as="geometry">
            <mxPoint x="15" y="18" as="offset" />
          </mxGeometry>
        </mxCell>
        <mxCell id="HGHsy-E57DKtYDnPdhEY-77" style="edgeStyle=orthogonalEdgeStyle;rounded=0;orthogonalLoop=1;jettySize=auto;html=1;exitX=0.5;exitY=1;exitDx=0;exitDy=0;entryX=0.499;entryY=-0.044;entryDx=0;entryDy=0;entryPerimeter=0;fontFamily=Helvetica;fontSize=12;endArrow=blockThin;strokeColor=#4284F3;endFill=1;strokeWidth=2;endSize=4;startSize=4;dashed=0;" edge="1" parent="HGHsy-E57DKtYDnPdhEY-81" source="HGHsy-E57DKtYDnPdhEY-54" target="HGHsy-E57DKtYDnPdhEY-56">
          <mxGeometry relative="1" as="geometry" />
        </mxCell>
        <mxCell id="HGHsy-E57DKtYDnPdhEY-60" value="" style="shape=mxgraph.gcp2.doubleRect;strokeColor=#dddddd;shadow=1;strokeWidth=1;rounded=1;absoluteArcSize=1;arcSize=2;" vertex="1" parent="HGHsy-E57DKtYDnPdhEY-81">
          <mxGeometry x="280" y="660" width="260" height="68" as="geometry" />
        </mxCell>
        <mxCell id="HGHsy-E57DKtYDnPdhEY-61" value="&lt;font color=&quot;#000000&quot;&gt;gdal 影像切片&lt;br&gt;&lt;/font&gt;生成符号化后的 DSM / DTM 图像" style="editableCssRules=.*;html=1;fontColor=#999999;shape=image;verticalLabelPosition=middle;labelBackgroundColor=#ffffff;verticalAlign=middle;labelPosition=right;align=left;spacingLeft=20;part=1;points=[];imageAspect=0;image=data:image/svg+xml,PHN2ZyB4bWxucz0iaHR0cDovL3d3dy53My5vcmcvMjAwMC9zdmciIHhtbG5zOnY9Imh0dHBzOi8vdmVjdGEuaW8vbmFubyIgd2lkdGg9IjIwIiBoZWlnaHQ9IjE5Ljk4OTk5OTc3MTExODE2NCIgdmlld0JveD0iMCAwIDIwIDE5Ljk4OTk5OTc3MTExODE2NCI+JiN4YTsJPHN0eWxlIHR5cGU9InRleHQvY3NzIj4mI3hhOwkuc3Qwe2ZpbGw6IzQyODVmNDt9JiN4YTsJLnN0MXtmaWxsOiM2NjlkZjY7fSYjeGE7CS5zdDJ7ZmlsbDojYWVjYmZhO30mI3hhOwk8L3N0eWxlPiYjeGE7CTxwYXRoIGNsYXNzPSJzdDEiIGQ9Ik0zIDMuOTlMMCA2LjQydjcuMTNsMyAyLjQ0eiIvPiYjeGE7CTxwYXRoIGNsYXNzPSJzdDAiIGQ9Ik0zIDMuOTlsLTMgNCAzLTJ6bS0zIDhsMyA0di0yeiIvPiYjeGE7CTxwYXRoIGNsYXNzPSJzdDIiIGQ9Ik0wIDE1Ljk5bDQgNCAyLTItNi02em0uMDEtOEw1Ljk5IDJsLTItMkwwIDMuOTl6Ii8+JiN4YTsJPHBhdGggY2xhc3M9InN0MSIgZD0iTTE3IDE2bDMtMi40MlY2LjQ0TDE3IDR6Ii8+JiN4YTsJPHBhdGggY2xhc3M9InN0MCIgZD0iTTE3IDE2bDMtNC0zIDJ6bTMtOGwtMy00djJ6Ii8+JiN4YTsJPGcgY2xhc3M9InN0MiI+JiN4YTsJCTxwYXRoIGQ9Ik0yMCA0bC00LTQtMiAyIDYgNnptLS4wMSA4bC01Ljk4IDUuOTkgMiAyTDIwIDE2eiIvPiYjeGE7CQk8Y2lyY2xlIGN4PSI2IiBjeT0iOS45OSIgcj0iMSIvPiYjeGE7CQk8Y2lyY2xlIGN4PSIxMCIgY3k9IjkuOTkiIHI9IjEiLz4mI3hhOwkJPGNpcmNsZSBjeD0iMTMuOTkiIGN5PSI5Ljk5IiByPSIxIi8+JiN4YTsJPC9nPiYjeGE7PC9zdmc+;" vertex="1" parent="HGHsy-E57DKtYDnPdhEY-60">
          <mxGeometry width="30" height="24" relative="1" as="geometry">
            <mxPoint x="15" y="18" as="offset" />
          </mxGeometry>
        </mxCell>
        <mxCell id="HGHsy-E57DKtYDnPdhEY-78" style="edgeStyle=orthogonalEdgeStyle;rounded=0;orthogonalLoop=1;jettySize=auto;html=1;exitX=0;exitY=0.5;exitDx=0;exitDy=0;entryX=1;entryY=0.5;entryDx=0;entryDy=0;fontFamily=Helvetica;fontSize=12;endArrow=blockThin;strokeColor=#4284F3;endFill=1;strokeWidth=2;endSize=4;startSize=4;dashed=0;" edge="1" parent="HGHsy-E57DKtYDnPdhEY-81" source="HGHsy-E57DKtYDnPdhEY-56" target="HGHsy-E57DKtYDnPdhEY-58">
          <mxGeometry relative="1" as="geometry" />
        </mxCell>
        <mxCell id="HGHsy-E57DKtYDnPdhEY-62" value="" style="shape=mxgraph.gcp2.doubleRect;strokeColor=#dddddd;shadow=1;strokeWidth=1;rounded=1;absoluteArcSize=1;arcSize=2;" vertex="1" parent="HGHsy-E57DKtYDnPdhEY-81">
          <mxGeometry y="660" width="260" height="68" as="geometry" />
        </mxCell>
        <mxCell id="HGHsy-E57DKtYDnPdhEY-63" value="&lt;font color=&quot;#000000&quot;&gt;postProcess&lt;br&gt;&lt;/font&gt;执行后处理脚本&lt;br&gt;点云数据优化&lt;br&gt;执行Webhook" style="editableCssRules=.*;html=1;fontColor=#999999;shape=image;verticalLabelPosition=middle;labelBackgroundColor=#ffffff;verticalAlign=middle;labelPosition=right;align=left;spacingLeft=20;part=1;points=[];imageAspect=0;image=data:image/svg+xml,PHN2ZyB4bWxucz0iaHR0cDovL3d3dy53My5vcmcvMjAwMC9zdmciIHhtbG5zOnY9Imh0dHBzOi8vdmVjdGEuaW8vbmFubyIgd2lkdGg9IjIwIiBoZWlnaHQ9IjE5Ljk4OTk5OTc3MTExODE2NCIgdmlld0JveD0iMCAwIDIwIDE5Ljk4OTk5OTc3MTExODE2NCI+JiN4YTsJPHN0eWxlIHR5cGU9InRleHQvY3NzIj4mI3hhOwkuc3Qwe2ZpbGw6IzQyODVmNDt9JiN4YTsJLnN0MXtmaWxsOiM2NjlkZjY7fSYjeGE7CS5zdDJ7ZmlsbDojYWVjYmZhO30mI3hhOwk8L3N0eWxlPiYjeGE7CTxwYXRoIGNsYXNzPSJzdDEiIGQ9Ik0zIDMuOTlMMCA2LjQydjcuMTNsMyAyLjQ0eiIvPiYjeGE7CTxwYXRoIGNsYXNzPSJzdDAiIGQ9Ik0zIDMuOTlsLTMgNCAzLTJ6bS0zIDhsMyA0di0yeiIvPiYjeGE7CTxwYXRoIGNsYXNzPSJzdDIiIGQ9Ik0wIDE1Ljk5bDQgNCAyLTItNi02em0uMDEtOEw1Ljk5IDJsLTItMkwwIDMuOTl6Ii8+JiN4YTsJPHBhdGggY2xhc3M9InN0MSIgZD0iTTE3IDE2bDMtMi40MlY2LjQ0TDE3IDR6Ii8+JiN4YTsJPHBhdGggY2xhc3M9InN0MCIgZD0iTTE3IDE2bDMtNC0zIDJ6bTMtOGwtMy00djJ6Ii8+JiN4YTsJPGcgY2xhc3M9InN0MiI+JiN4YTsJCTxwYXRoIGQ9Ik0yMCA0bC00LTQtMiAyIDYgNnptLS4wMSA4bC01Ljk4IDUuOTkgMiAyTDIwIDE2eiIvPiYjeGE7CQk8Y2lyY2xlIGN4PSI2IiBjeT0iOS45OSIgcj0iMSIvPiYjeGE7CQk8Y2lyY2xlIGN4PSIxMCIgY3k9IjkuOTkiIHI9IjEiLz4mI3hhOwkJPGNpcmNsZSBjeD0iMTMuOTkiIGN5PSI5Ljk5IiByPSIxIi8+JiN4YTsJPC9nPiYjeGE7PC9zdmc+;" vertex="1" parent="HGHsy-E57DKtYDnPdhEY-62">
          <mxGeometry width="30" height="24" relative="1" as="geometry">
            <mxPoint x="15" y="18" as="offset" />
          </mxGeometry>
        </mxCell>
        <mxCell id="HGHsy-E57DKtYDnPdhEY-79" style="edgeStyle=orthogonalEdgeStyle;rounded=0;orthogonalLoop=1;jettySize=auto;html=1;exitX=0;exitY=0.5;exitDx=0;exitDy=0;entryX=1;entryY=0.5;entryDx=0;entryDy=0;fontFamily=Helvetica;fontSize=12;endArrow=blockThin;strokeColor=#4284F3;endFill=1;strokeWidth=2;endSize=4;startSize=4;dashed=0;" edge="1" parent="HGHsy-E57DKtYDnPdhEY-81" source="HGHsy-E57DKtYDnPdhEY-58" target="HGHsy-E57DKtYDnPdhEY-60">
          <mxGeometry relative="1" as="geometry" />
        </mxCell>
        <mxCell id="HGHsy-E57DKtYDnPdhEY-67" style="edgeStyle=orthogonalEdgeStyle;rounded=0;orthogonalLoop=1;jettySize=auto;html=1;exitX=1;exitY=0.5;exitDx=0;exitDy=0;exitPerimeter=0;entryX=-0.007;entryY=0.444;entryDx=0;entryDy=0;entryPerimeter=0;fontFamily=Helvetica;fontSize=12;endArrow=blockThin;strokeColor=#4284F3;endFill=1;strokeWidth=2;endSize=4;startSize=4;dashed=0;" edge="1" parent="HGHsy-E57DKtYDnPdhEY-81" source="HGHsy-E57DKtYDnPdhEY-23" target="HGHsy-E57DKtYDnPdhEY-18">
          <mxGeometry relative="1" as="geometry" />
        </mxCell>
        <mxCell id="HGHsy-E57DKtYDnPdhEY-80" style="edgeStyle=orthogonalEdgeStyle;rounded=0;orthogonalLoop=1;jettySize=auto;html=1;exitX=0;exitY=0.5;exitDx=0;exitDy=0;entryX=1;entryY=0.5;entryDx=0;entryDy=0;fontFamily=Helvetica;fontSize=12;endArrow=blockThin;strokeColor=#4284F3;endFill=1;strokeWidth=2;endSize=4;startSize=4;dashed=0;" edge="1" parent="HGHsy-E57DKtYDnPdhEY-81" source="HGHsy-E57DKtYDnPdhEY-60" target="HGHsy-E57DKtYDnPdhEY-62">
          <mxGeometry relative="1" as="geometry" />
        </mxCell>
        <mxCell id="HGHsy-E57DKtYDnPdhEY-70" style="edgeStyle=orthogonalEdgeStyle;rounded=0;orthogonalLoop=1;jettySize=auto;html=1;exitX=0;exitY=0.5;exitDx=0;exitDy=0;exitPerimeter=0;entryX=1;entryY=0.5;entryDx=0;entryDy=0;fontFamily=Helvetica;fontSize=12;endArrow=blockThin;strokeColor=#4284F3;endFill=1;strokeWidth=2;endSize=4;startSize=4;dashed=0;" edge="1" parent="HGHsy-E57DKtYDnPdhEY-81" source="HGHsy-E57DKtYDnPdhEY-38" target="HGHsy-E57DKtYDnPdhEY-40">
          <mxGeometry relative="1" as="geometry">
            <Array as="points">
              <mxPoint x="580" y="365" />
              <mxPoint x="580" y="365" />
            </Array>
          </mxGeometry>
        </mxCell>
        <mxCell id="HGHsy-E57DKtYDnPdhEY-84" value="" style="shape=image;verticalLabelPosition=bottom;labelBackgroundColor=default;verticalAlign=top;aspect=fixed;imageAspect=0;image=data:image/jpeg,/9j/4AAQSkZJRgABAQAAAQABAAD/2wBDAAMCAgMCAgMDAwMEAwMEBQgFBQQEBQoHBwYIDAoMDAsKCwsNDhIQDQ4RDgsLEBYQERMUFRUVDA8XGBYUGBIUFRT/2wBDAQMEBAUEBQkFBQkUDQsNFBQUFBQUFBQUFBQUFBQUFBQUFBQUFBQUFBQUFBQUFBQUFBQUFBQUFBQUFBQUFBQUFBT/wAARCAKAAoADASIAAhEBAxEB/8QAHQABAAEEAwEAAAAAAAAAAAAAAAgBBQcJAgMGBP/EAFYQAAEDAgIFBAkNDgUEAwEBAAABAgMEBQYRBwgSITETQVGRCRRhcYGhscHRFiIyMzRCUlRVcpOywhUYGTc4YnN1kpSVorPDIyRDU4IlY+HwRHSDRdL/xAAcAQEAAgMBAQEAAAAAAAAAAAAABQYEBwgDAgH/xAA/EQEAAQICBQgHBgYDAQEBAAAAAQIDBAUGERIxURMhMmFxgZGxFCI1QVOhwRUzNNHh8BYjQlJUYkOC8QdEcv/aAAwDAQACEQMRAD8A2pgAAAAAAAAAAAAAAAAAAAAAAAAAAAAAAAAAAAAAAAAAAAAAAAAAAAAAAAAAAAAAAAAAAAAAAAAAAAAAAAAAAAAAAAAAAAAAAAAAAAAAAAAAAAAAAAAAAAAAAAAAAAAAAAAAAAAAAAAAAAAAAAAAAAAAAAAAAAAAAAAAAAAAAAAAAAAAAAAAAAAAAAAAAAAAAAAAAAAAAAAAAAAAAAAAAAAAAAAAAAAAAAAAAAAAAAAAAAAAAAAAAAAAAAAAAAAAAAAAAAAAAAAAAAAAAAAAAAAAAAAAAAAAAAAAAAAAAAAAAAAAAAAAAAAAAAAAAAAAAAAAAAAAAAAAAAAAAAAAAAAAAAAAAAAAAAAAAAAAAAAAAAAAAAAAAAAAAAAAAAAAAAAAAAAAAAAAAAAAAAAAAAAAAAAAAAAAAAAAAAAAAAAAAAAAAAAAAAAAAAAAAAAAAAAAAAAAAAAAAAAAAAAAAAAAAAAAAAAAAAAAAAAAAAAAAAAAAAAAAAAAAAAAAAAAAAAAAAAAAAAAAAAAAAAAAAAAAAAAAAAAAAAAAAAAAAAoVAAAAAAAAAAAAAAAAAAAAAAAAAAAAAAAAAAAAAAAAAAAAAAAAAAAAAAAAAAAAAAAAAAAAAAAAAAAAAAAAAAAAAAAAAAAAAAAAAAAAAABQqAOpqZf+DltZIcU3bszy2NNJWHMA07Zr5daega72DHuze/5rUzVeo+rduu7VFNuNcz7oY97EW8PRNd2qKaY9880PWbRRVQwdLrg6PWPVqVlW5EX2TaV2SnD78PR/wDGK392d6SVjKMf8GrwlCfxFlUf/op8YZ02u6NrumC/vxNH/wAZrP3Vw+/E0f8Axms/dXD7Hx/wavB+fxHlP+RT4s65jMwV9+Jo/wDjNb+6uK/fh6P/AI1Wfurh9j4/4NXgfxFlP+RT4wzptDaME/fh4A+MVn7s4ffh6P8A4xWfurh9j4/4NXhJ/EeU/wCRT4wzrtd0bXdMF/fiaP8A4zWfurh9+Jo/+M1n7q4fY+P+DV4H8R5T/kU+LOu2NswX9+Ho++M1n7o4p9+Ho/8AjFZ+6u9I+x8f8Grwk/iLKv8AIp8YZ02u6NrumC/vxNH/AMZrP3Vw+/E0f/Gaz91cPsfH/Bq8D+I8p/yKfFnXMZmCvvxNH/xmt/dXFfvw9H/xqs/dXD7Hx/wavA/iLKf8inxhnTaG0YJ+/DwB8YrP3Zw+/D0f/GKz91cPsfH/AAavCT+I8p/yKfGGddruja7pgv78TR/8ZrP3Vw+/E0f/ABms/dXD7Hx/wavA/iPKf8inxZ12xtmC/vw9H3xms/dHFPvw9H/xis/dXekfY+P+DV4SfxFlX+RT4wzrtFc+4YJ+/C0f/Ga392d6Sn34ej/4zWfuzvSPsfMPg1eEvz+Isq/yKfGGdEd3SqruMb6OdOmGNKFznt9lmnkqYI+Xe2WFWJsZonHvqhkdEXLoI27ZuWK9i7TNNXCU1hsVaxduLlmqKqZ98bnYADyZam4ZlFTgebxzja16OcKXXEd7mdT2u2wLUVD2MV7kanQib1VV3Ih+RE1TFNO+X5MxTGuXo8lK5KRWTsk2hhP/AJt3/hzvSV/CTaGPjt4/hzvSZ/2di/h1eDD9Msf3x4pUZ9wZ9wit+El0M/Hbv/DXekfhJtDPx27/AMNd6R9nYv4c+B6ZY/vjxSozGZFj8JNoY+O3f+HO9I/CTaGPjt3/AIc70n79nYv4dXgemWP748UqM+4M+4RW/CS6Gfjt3/hrvSPwkuhn47d/4c70n59nYv4c+B6ZY/vjxSq5ukpn4CK34SbQ18dvH8Od6T6bZ2RXQ5dbnS0UVwubJamZkLHyW96NRzlREzXozUTl+Kjn5OfAjF2J5tqPFKIHXG9JGsci5o5M0OTnZZ9BgsvWJ3yirmReunZFdDlruVVRvuFzkfTyuic+K3vVjlaqoqovOm7cp86dkm0Mp/8AMu/8Od6TPjL8VPPFufBiel2I/rjxSq2htEV/wk2hj47eP4c70j8JNoY+O3j+HO9J+fZ+L+HPgemWP748UqM+4M+4RW/CS6Gfjt3/AIa70j8JLoZ+O3f+HO9I+zsX8OfA9Msf3x4pUcApFf8ACTaGlVP87d/4a/0mT9F2tBo00w1PamGcUU1TcMtrtCoRYKhyfmseiK7Ln2c8j5uYLEWqdquiYjsfVGJs1zqprie9lvNCp1ouZ2GGywAAAAAAAAAAAAAAAAAAAAAAAAAAAAAAAAAAY/0zaRodGOB668PaktRuhpYl4PldnsovcTJVXuIprtxLiS54uvM91u9W+rrZ3ZukeueSczUTmROZCUGvRcJoqXClAjl7XmkqJ3N6XMSNG+J7usiVwVMzc2iOAtUYSMVq9eqZ5+EROrV9XOOnmZ3ruPnCa9VFMRzcZmNetQAGwmqAAAAAAAAAAAAAAAAAAAAAAAAAAAF3l8wfg2645v1PaLRTrUVc6/8AGNvO9y8zU6Rg/CN1xxfaa0WimdU1U68ODWN53OXmROk2AaGdDVr0T4dbTwNbUXOdEdV1itydI7oToanMhUM9z23ldrYo57k7o4dcr9ozo3ezm9t181qnfPHqhXQ5octmiawJT0rW1FfMiOqqxW5Pld0dxqcyGR0394ojc0McacNOOHNAmDKjEGIqhcvYUlFCqctVy8zGIvWq8ETjzZ6OruXsbemqqZqqqnxdM4exZwFiLVuIpophksbSIh4fRDpLpdL2jex4wo6SahprrCszKaoVFfHk5zVRVTcu9q7+g9su88KqZpmaZ3wy6aoqiKo3Sqm8wJr0VyUGqvjt2eSyU8MKf8qiNvnM9JwIsdkjvKWvVlr6fPL7o3OkpU7uTll/tGZgKdrE24/2jzY+LnZs1T1S1J7k4JkADdDXQAAAAAAAAeq0U2z7s6T8I0GWfbN3pIsu/M1DyplLVatyXXWJ0e06pmjrzA/9l215jGxVWxZrq4RPk9rMbVymOuG72NmxE1qcETI+HEVf9yrBcq5eFNTST/stV3mLi3gh4nTbcVtGiDGlai5LDZ6t6L/+TjS9uNq5THGYbErnVRM9TRVXzLUV9TKu9ZJXPXwrmdAz2t68VBu6inVRENcV88gAPt8AAAHdRVtRbayGrpJ5KWphekkc0L1Y9jk3oqKm9F7x0g/NmJjVJHNOttp1D9Zis05YHqbPiCZsuKbEjGzT5+uq4HbmSqnwkVFa7u5Lz5Eq0Tcakuxs3Kei1l6anicqR1lqq4ZU5laiNemfhYhtrzzQ1JnGGowuLqpojVE6p8V8y69VesRNW+OZ2AAhkoAAAAAAAAAAAAAAAAAAAAAAAAAAAAAAAAiHr3e68G96s8sJFNeJKvXv924N+bWeWAiovE31or7Lt9/nLlXTX21d7vKAAFuUQAAAAAAAAAAAAAAAAAAAAAAABXiu8vWFMJ3XG99p7RZ6ZaqrndkicGsTnc53M1OdThhTC1zxtfqW0WmmdVVlQ7JrW8GpzucvMic6k/8AQtoWtmiawNiZs1N3nai1dcrclevwW9DUXghUc8zy3ldvYo57k7o4dc/vnXzRnRq9nV7bq5rVO+fpCmhnQxbNE1iSGFEqrrOiOq61W5OevwU6GpzJ4VMmoi59w5cxjvTTpmw7oKwVVYjxFU7ETM2U1Kxf8aqly9bGxOledeCJvU0dcuX8bfmuuZqqql0zhsPh8uw8WrVMU00w46bdNuG9BGCKjEWIqnZRM46WijcnLVc2W6NieVeCJvU07acNOWI9PeNajEOIJ1RiKrKOgjVVhpIs9zGJ5V4qu/oQ5addOuItP+Np8QX2dWRNzjoqCJyrDSRczGovPwVXcVXvIY5Xei5cTYuV5TTgqOUuc9c/LqhWMbjqsTVsU81Pm3aapFB9zdWzR3Ds7KrZ4ZFTuvTa85mDnPEaFbetp0QYMo1bsrDZ6Vit6FSJp7bga4xE7V6ueufNcLMardMdUK8yEKuyoV3JaHMLUmft1+bJl07MEqfbJqrxID9ldr9jDOj+i5pKyqmy+ayNPtmflFO1jbcdf0YmYTqw9fY1xgA2+oIAAAAAAAAZ11HaL7oa1OAI8s0bUzyr3Nimld5WoYKJGagd3sth1j7TX3u5Ulqgho6nkZq2VImLKrNlGo5d2aorupSOzCZjCXNXCWVhYib1GvjDcMm7ZQxJrZXH7mauGkSZFyX7kTM/aRG/aMg2zGlhvOSUF7t1cq81NVxyeRTCevhd2W3VbxqnKNa+pZT0zEVclcrqiPNE6dyKvgU1PhLdU4i3TMb6o815v10xZqmJ90+TTmnAAG6KWvAAH6AAAAACT/Y5PyorR/8AQrP6Sm3U1E9jj/KhtP6vrP6Sm3VOBrHSL8Z3R9V0yj8P3y5gArCcAAAAAAAAAAAAAAAAAAAAAAAAAAAAAAAARC17/duDfm1nlgIqEq9e/wB24N+bWeWAiob60V9l0d/nLlXTT2ze7vKAAFuUQAAAAAAAAAAAAAAAAAAAAAV99vLthnDFzxnfKW1WqmdV1tQ/ZYxqbk6XOXmROdVOOG8M3LF95pbTaqV9VW1DtljGpw6VVeZE51Un1oR0JW7RNZGp62rvVQ1Fq616b/mM6GovX5KnnmeW8stbNPPcndH1nq8150b0bvZ3e2p9W1G+fpHXLloR0KW3RNYkaiNqrvUNRaqsVu9y/Bb0NTx8VMpt4FMk8B4PTDphw7oTwZWYkxJV8jSwpswwMVFlqZV9jHG3nVfEmaruNGXbt/HX5rrmaqqpdN4XDYfLcPTatRFNNMOGmTTNhzQhgisxHiKq5KGNFZT0zFTlqqXL1scac6r08ETepp309aecR6wONpr/AH2Xk6ZmbKC3RuXkaSLPc1vSq87uKr4EOzT/AKfsR6wmNpb5e5Vho41VlBbI3KsNJF0N6XLkiq7nXuIhjE2NlOU04OnlLnPXPy6lZx+PqxFWxR0Y+YfRQQLU11NCiZrJK1iJ05rl5z5y/wCj+jW449wzSImfbF0pYf2pmp5yw3Z2bcyirca64hviw3SJQWC20yJspDTRRonRk1E8xc04KcYm5ManMiZHM0hVOuZlsmmNVMQ4pwU1v9lbuavxRgG3Z7oqSqnyz4bT2J9k2QLzmrHsol0Wp072WizzZTWKJyJ0K+aVV8TUJ7IqdeOpnhEovM51YaruQ6ABtZRgAAAAAAAAAAdkdRLEubJXsX81yod892rqumSnnramaBHbSRSSucxF6clXI+QHxydG/U+turiAA+3yAAAAAAAAk92OP8qG0/q+s/pKbdENRfY4/wAqG0/q+s/pKbdENX6Q/je6PqumUfh++XYACtJwAAAAAAAAAAAAAAAAAAAAAAAAAAAAAAABELXv924N+bWeWAioSr17/duDfm1nlgIqG+tFfZdHf5y5V009s3u7ygABblEAAAAAAAAAAAAAAAAAABVXLmXLDuHLjiu9UtqtVK+srql2wyJnjVV5kRN6qUw9h+4YqvVLbLZSvrK2pejI4mJx7qrzInOq8CfOgrQdb9E1mSSVrau/VLUWprFTh/22dDU8fHuJVM7zu3ldrZp57k7o+s9S76N6OXs7v655rdO+fpHWroO0IW7RLZEc9GVl8qWp21W7P8jM96NTx8V7mV09kU9ftdw8XpV0rYe0NYNr8S4lrW0lBTN9bGioss7/AHscbc/XOXo76rkiKpoy7dv42/NyuZqqql05hcLh8tw9Nq1EU0Ux++9x0taWsP6FsFV2JMSViU1HAmzHFxkqJclVsUac7nZd5N6rkiKadtYLWBxDrC41lvN4ldT2+FVjt9rjeqx0sXR3Xrzu5+8dusTrD4i1h8aSXe6yLTWyBXMt1rY/OOljz/meuW93P3ERDFJsPKMppwlPK3eeufkrOPx84idijox8wAFoQ4ZE1drSt709aPKRqKud+opVy6GTNeviaY7M66jtsW6a0eBWZbSRVEs6p82CRTDxtWxh7lXCJ8mTh42rtMdcNzzeCHMoilTSzY7hzqajeyPVyVes5cY0XNKW20kPe9Yrvtm3Fec0x68l0+6WtHjh21m2KaKBFz+DCzz5lo0cp14uZ4RPnCBzedViI62CQAbNU0AAAAAAAAAAAAAAAAAAAAAAABJ7scf5UNp/V9Z/SU26Iai+xx/lQ2n9X1n9JTbohq/SH8b/ANYXTKPw/fLsABWk4AAAAAAAAAAAAAAAAAAAAAAAAAAAAAAAAiFr3+7cG/NrPLARUJV69/u3BvzazywEVDfWivsu33+cuVdNPbN3u8oAAW5RAAAAAAAAAAAAAAACJmoFVTIuNisNwxPdqW2W2mkq66pejI4o0zVV7vQicVXmKWGyV+I7rTW620z6ytqXIyKJib3L5k7vfJ5aB9A1FoqtSVVUjarENS1O2KnLNI048mzoTpXnKtnedWsrs6o57k7o+s9S7aOaO387v8Lcb5+kdaugfQXQ6K7OlRO1lVfqlidsVSJmjfzGfmp085mBrsk7pRF6Txuk/SZh7RDg+uxLiSubRW6lTvvlf72NjffOVeCeZDRd+/ex9+a7kzVVV++Z05g8Hh8sw9Nq1Ts00x+5k0paVMPaIMH1+JMS1jaO20rck35vmkVPWxsb75zuZO+q5ImZp71jNYvEWsVjJ9zuj30lmpnubbbSx+cdMxedel7k9k7wJuQ5ayGsfiHWKxo653FzqOy0quZbbSx2bKeNed3M6Red3gTchiI2BlGUxhKeVu89c/JXMfj5vzsUdDzAAWpCgAAEmex1W9a3WgskiJupqKrmX6JW/aIzEvexg23tvWDuVTlmlLYp3/tSxN85FZtVs4K5PUzcFG1iaI621hEyKlE4BeBp9sNR65NNHGszXrc9YPSDUbW2jrzUMRfmuVvmN4ki5MVVNC2lOu+6mk3FlYjtpJ7tVSZ9Ocz1LjozTru3KuqFbzmfUojreXABsRUwAAAAAAAAAAAAAAAAAAAAAAAEnuxx/lQ2n9X1n9JTbohqL7HH+VDaf1fWf0lNuiGr9Ifxv/WF0yj8P3y7AAVpOAAAAAAAAAAAAAAAAAAAAAAAAAAAAAAAAIha9/u3BvzazywEVCVevf7twb82s8sBFQ31or7Lo7/OXKumntm93eUAALcogAAAAAAAAAAAAArnsH3WWyV2ILrTW+gp31dbUvSOKGNM1cq+bu8xSzWitvlyprfb6Z9XW1L0jhhjTNzlX/3qzJ36AdAdFottiV1c1lViOpZ/jTombYUX/TZ5158ugq+dZ1ayu1qjnrndH1nqXTRzR29nl/VHNbjfV9I61dAegaj0VWtKyrRlViGpYnL1GWaRJ/ts7ic68VMy5JlkMkyyPKaSdI9i0U4RrsSYirWUNspGbSvcvrpHe9YxPfOcu5ENFX79/H35uVztVVT+4h09g8Hh8sw1NmzGzTT+9cuOkvSbYNEmEK3EuJK1tFbKRuarxfI73rGN985eZENPesprJ4g1i8Yur65XUNipXObbbSx6qyBnDbd8KRyZZr4E3ce3WX1l7/rF4vWtrFfQYepHKlttLX5tib8N+W50i87vAm7jho2BlGUU4Wnlrsa65+X6q9j8fN+eTt9GPmAAtSDAAAAAAnX2KW0cvjfHlzVPc9vp6bP9JI539ogobE+xQ0ezadIdZl7Koo4c+82RftEBnlWrBV93mk8tjXiKWwJOBU4tORqlfVtvlWlBZ66qcuTYYJJFXvNVfMaBbtULV3WtnVc1lne/PvuVTe1pcr/uVosxfVquXIWirkz70LjQ03PZTPjkXrRmn7yrsVXOZ9aiO1UAF7VkAAAAAAAAAAAAAAAAAAAAAAABJ7scf5UNp/V9Z/SU26Iai+xx/lQ2n9X1n9JTbohq/SH8b/1hdMo/D98uwAFaTgAAAAAAAAAAAAAAAAAAAAAAAAAAAAAAACIWvf7twb82s8sBFQlXr3+7cG/NrPLARUN9aK+y7ff5y5V009s3e7ygABblEAAAAAAAAAAnECqJuzPstVorL7caahoKaSrrKh6RxQxJm5zlKWu11d6uNPRUVPJV1lQ9I4oYm5ue5eZCdmgDQBSaMrc253JrKrElQz/El4tp2r7xnnXn7xWM6zq1lVrjXO6PrPVC56O6PX87xGzHNbjpTw6o4yrq/wCgGl0XW9LhcWx1WIqhn+LMiZthav8ApsXyrzmam70CNzTgeZx9j+xaMcKV2IsRV0dvtdIzakkeu9y8zGp75yruRE4qponEYi/jr83Lk7VVX71Q6ewOBw2V4amzZp2aaf3rnrU0haQbFotwlX4kxHWsoLZRM23yLvc5eZrW8XOXgiJvU0/6zus3fdYzFzqidZKDDVG9zbbakf62NOHKPy9k9edeZNyd3s1odZ++ax2LOVlWS34XopHJbbWjs0YnDlZOmRU48ycE7uEePEv+T5RGFjlr0a6p+X6oDMMfN6eTt9HzAAWtBAAAAAAAABs67Fhbkh0SYprdnJai8bGfTsRN/wD9GsXoNsfY0relJq3Mn2cnVV2qpFXpy2G/ZKxpDVs4TVxmPzTWUxrvxPCJSyTgF4FQaxXZifWnuaWnV30h1Crl/wBGqIkXuvYrE8bkNIJuT177mlr1W8arnks7IIE/5Tx/+TTYnA2HozTqs11df0U/OZ13qY6gAFyV8AAAAAAAAAAAAAAAAAAAAAAABJ7scf5UNp/V9Z/SU26Iai+xx/lQ2n9X1n9JTbohq/SH8b/1hdMo/D98uwAFaTgAAAAAAAAAAAAAAAAAAAAAAAAAAAAAAACIWvf7twb82s8sBFQlXr3+7cG/NrPLARUN9aK+y6O/zlyrpp7Zvd3lAAC3KIAAAAAAARMwOXsF7h9FstlVeLhBRUMD6qrnekcUMbc3PcvBEQpbrdVXWsho6OCSpqp3pHHDEmbnuXgiITl1e9X2m0aUTLvd42VOIahu93FtM1fes7q5718Cd2s5znNrK7OvfXO6OP6Ljo9o9fzu/sxzURvnh+rs1fdXyl0Z0DLpdEZU4knZ69/sm0zVRM2M7vS7n4cOOckQojelDz2Nsb2XR1hm4YgxBXR261UMayTTSL1Iic7lXciJvVTROJxF/HX5uXJ2qqv3qh0/gMDh8rw1NmzTqpp/euetTHmO7Jo3wtXYhxFXR2610UfKSzSL1NanFXKu5ETepqD1pdaS+axeLNteVt2FKJ6pbrXtbsv92VE3OevUibk51XlrT60971isUK1iyW7CNE9fufa9rjxTlpMuL1Tm4NTcnOq4KL5k+URhqYvXo11T8v1QGYZhN6eTt9HzAAW1BgAAAAAAAAAAZ5G4vUGoEt+qzg/1uys3bEy93anfkvVkadM8uPA3Z6oVsW06tWjynVuy77kxSOTuuzd5ynaS1arFFPGfosGTR/OqnqZjKLwKlF4Gu1wRV7JLcO0tWitiRfdVypYf5ld9k1KG0nso1f2toJsdLn7pvsW75sMqmrZOBszR2nVhNfGZUnNp13+6AAFpQoAAAAAAAAAAAAAAAAAAAAAAACT3Y4/yobT+r6z+kpt0Q1F9jj/KhtP6vrP6Sm3RDV+kP43/AKwumUfh++XYACtJwAAAAAAAAAAAAAAAAAAAAAAAAAAAAAAABELXv924N+bWeWAioSr17/duDfm1nlgIqG+tFfZdHf5y5V009s3u7ygABblEAAAAAHJE2eG9DvoKKoulbBSUkD6ipnekccUaZue5eCIhSipJ7hVQ0lLC+pqZnpHHFG1XOc5eCIicVJv6vGrzDo5o475fI2VGIpm+tb7JtK1fet/O6V8Cd2t5znNrK7Wueeqd0cf0W7R/IL+d39mjmojpVcI/OXZq8avdPo4oY71eY21GI5258M20rVTexvd6V8Cd3O7dzc+JVG85YcZ4wtOA8OXC/Xyuit9qoI1lmqJVyRqJzJ0qvBETeqrkaIxWKv4+/Ny5Ouqr96odQ5fl+GyrD02bFOqmn59cqY1xpZ9HuHK/EF+r47faqKNZJqiZckROZE6VVdyIm9VVENQ+tZrV3nWLxKsUSy23B9FIvaFsV2SvXhy0uS5K9d+XM1OHOp261+tdd9YfEa01Ks1twbQyL2jbldksy8OWlTgrlTgnBqLl054AL1k+URh4i/fj1vL9UFmGYTdnk7XR8wAFuQQAAAAAAAAAAAAAG+DQ3bvuRomwbRo3Z5Gz0jVToXkW5+M0SU0LqmphiZvfI9GJ31XI3+YcpEocP2ynRMkhpoo0TvMRCi6TVfd09v0WbJo566uxdE4FQUXgURakAuyvXhYsP6PLVnuqKqrqVT5jI2p/VU1zk7+yuVyvxlgGjz3RUFVLl8+RifYIIG1sjp2cDR16/NQ8ynXiav37oAAT6LAAAAAAAAAev0Z6JsWaYL3PacIWiS718EK1EsbHtYjY0VEzVzlROLkTieyumqDpktG0s+j67ua3isDGy9Wy5czFqxdiirYrriJ7XtTauVRtU0zq7GHgeixTo6xXgdGOxFhq7WOOR2wyS4UUkLHu6GuciIq9486e9NVNcbVM64ec0zTOqqNQAD7fIAAAAAAACT3Y4/yobT+r6z+kpt0Q1F9jj/KhtP6vrP6Sm3RDV+kP43/rC6ZR+H75dgAK0nAAAAAAAAAAAAAAAAAAAAAAAAAAAAAAAAEQte/3bg35tZ5YCKhKvXv924N+bWeWAiob60V9l2+/zlyrpp7Zu93lAAC3KIAADkqK1d/A7qWjlr6yGlpYnz1Mz0jjijTNznKuSIic65nGlpZ62pip6eJ888rkYyKNu057l3IiJzqTb1dNXaHAFNFf79E2W/Sszjid65tI1eZOl68683BCuZxm9nK7O1PPVO6OP6cVtyHIL+d4iKKeaiOlV7oj83LV21eYcAUsd9vkTZ8QTNzZG5NpKRq8yfndK+BO7IBu5vAIiFlxPiq14IsNber1WRW+20Ubpp6md2TWNRPGvMicVNEYvF38wvzcuTrqn96odQZdl+GynD02LMaoj59cqYuxbasDYcrr5eayKgtlFGss9TM7JrU86quSIicVVENR2tprZ3XWHxH2nRLLbsF0MqrRUCrk6ZybuWly4uXfknBqd3NV7dbjW3uusLiFbdbnS2/BFDKq0lEu51S5N3LTJzrxybwai9OZHUvGT5PFiIv349bhw/VCZhmE3Z5O30fMABb0EAAAAAAAAAAAAAAAA9Bo9tzrvj/DVC1Npam500OXTtStTzm/CmbycLE6Goho41bLd91dYDR7TbO1tXyldl82RHeY3ls9ihrzSar+bbp6pWvJY9SuetyKLwKgpqytWvZR65ZtNuH6XPNKeyMXLo2ppPQhDMlD2R65rcNZiuh2tptJbqWHLoXJzl+sReNv5TTs4O1HU17jZ14iuesABLMEAAAAAAABPXsUlsSTEukC4K32qlpYEd0bT5HL9RDY8qb8iBPYoqHYwtpArFb7ZW0sSO+bG9ftIT2X2RqTOqteNud3lC95dGrD0oV9lNuLafQxhqiRU5SpvrH99rIJc/G5prANiHZX7kraHR1b0d610tbO5veSFqeVxrvLxkFOzgqZ4zPmrWaTrxE9wACxokAAAAAAABJ7scf5UNp/V9Z/SU26Iai+xx/lQ2n9X1n9JTbohq/SH8b/ANYXTKPw/fLsABWk4AAAAAAAAAAAAAAAAAAAAAAAAAAAAAAAAiFr3+7cG/NrPLARUJV69/u3BvzazywEVDfWivsujv8AOXKumntm93eUAALcojllsO3nOCmkrKmOCnjdNLK5GMjY3ac5yrkiIicVKQQTVU0cMEbpZpHIxsbEzVyrwRE51JqauOrpHgqGLEWIoElvsrdqCByZpSNVOfpf3ebgnOV7N83tZVZ2queqd0cf04rZkOQ387xEW6OamOlV7oj83bq6auseB4YsQX+Fsl+lbnFA7JW0jV+2qLvXm4J0kheDeBRERELTiDEluwnY627Xesit9so4lmqKmdyNZGxOKqv/ALnzGhsZjL+YX5uXZ11T+9UOocuy7D5Vh6bFmnVTHz65lXE+JrZg+w1t5vNbDb7bRRrNUVM7tlrGJzr6Oc1Ja3etzc9YS/utdrdNbsEUUqrTUmey6rcm5JpU6ehvMndzO3W+1u7lrAXx9ns7prdgaik/y9KvrX1j04TS/ZbzJ3SNpeMmyeLERiL8et7o4fqhswx/KzyVqfV48TiAC3oAAAAAAAAAAAAAAAAAAAGbdSui7f1o9H0WWezXPl/Yhkf9k3SpwQ1Bdjvs63TWisE+WaUFLV1K9z/BdH/cNv6b0NaaR1a8VTTwpjzlcsojVYmetVOAXgVKO4FVTzTBrx3BbjrUY+dtbTYqmGBvc2aeJFTrzMEmUtaO4pddYvSLUtdtNdeqhqL3Gu2U8SIYtN0YGnZw1uP9Y8mt8RVtXq565AAZrHAAAAAAAAbQOxZUKw6GMSVSp7fe3NRenZhj9JNNu8it2Nq0rbtWmknVPd1yqqhF6Uzaz7BKr3ppvMqtvGXJ62wcFGzYojqa1+ys3BJca4Fo0X10NBUSqnzpGp9ggmTD7KFc0qtO9npEX3LZIs06FdLIvoIeGysmp2cFb7Pqp2YTrxNXaAAmkeADd3D52qI3vrUAvdnwPiPEDmttmH7pcNr2K01HJIi+FEPe2fVT0vX5EWk0e3xzV55qfkU/nVDxrxNm3064jvh6U2K6+jTPgxOCS2HOx4aa789EqbFQ2Ni+/uVwj8kSvXxGRrT2K/HFRsuuWLrHSIvFII5plTra0wa81wVvfcjz8mRTgcRXuol4Dscu/WgtH6vrP6Sm3ZCI2rRqGw6ANIEOLanFsl8rYaaWCOnjokgjRXpkrlVXuVckz3buJLja3Gu84xVrF4rlLc641RC25dYrsWdmuNU63YCicCpCJUAAAAAAAAAAAAAAAAAAAAAAAAAAAAAAABELXv8AduDfm1nlgIqEq9e/3bg35tZ5YCKhvnRX2XR3+blbTT21d7vKFVzRe6dkUD6mVkUUbpZXuRrWMTNXKvBETnUpCx80jIo2Okke5GsY1M1cq7kRE51Jmat+rgzCkdPibEkCPvT/AF8FLImaUqLwVU+H5MzPzbNrOV2NqvnqndHGfy60bkWRYjOsRFq3GqmOlV7oj83PVw1c24QigxFiKFsl7em1BTOTNtK1U5+l6p1Ej04dBTJMm5LkfDfb5QYZtFXdLpUxUVupInTT1MztlkbETNVVTQ2Mxd/Mb83bs65n5dUOossy3DZRhqbFiNURv4zPGXHEGILdhazVl2utZDb7dRxrNUVM70ayNiJmqqqmpnXC1wLjp+vT7JZJJqDAtHLnDTr619c9F3TSp0fBbzZ58eHZri64dfp6vMlgsMktBgWjlzji3tfXvRd0sn5vwW83Fd/CMRdMmyeLMRiMRHre6OH6ofMMwm5PJWp9Xjx/QABckAAAAAAAAAAAAAAAAAAAAAAJi9i7tqVWne+VeXuWxS5L86aJDae1DWn2Keg5THuN63LfFbYYc/nSqv2DZWnsTVOe1bWOqjhELxlUasNHbKuW44yuRkblXhlmpyz3HwXuoSks9fO5cmxU73qveaqkDTGudSVqnVDRBpOuH3W0k4qrdra5e61Mma8+crlPMn03So7auVZOq58rM+TPpzcqnTTwyVT0ZDG+Z6rkjY02lXwIbstTRTbiOpreumarky4A9lY9DOPsS5La8F36ua7g6G3Sqi+HZPe2TUq01X1zUiwHX0rXe/rJIoETvo56L4j4rxli3064jvh902LtfRpme5hAEsbJ2NDS7dI2vq32O0ovvaitc9yeBjFTxnvrF2KbEE2yt5x3b6PpbQ0Mk+fhc5nkMGvOMFRvrju52RTgL9W6iUEAbM7L2K7BVMiLc8W3uuXLf2vHFAmfhRynvLD2OLQ1Z3MfUW65XdW8UrK9yI76NGmBXpDhKd2ue782TTlF+rfqjvakM92fMc4oZKhcoY3SrnlkxMzdfZdUPQ3h/ZWk0e2ZXN4PqYVqHdciuU95Z9HOFsPplbMO2q3/AP1qONi+JDAr0lojoW575ZVOTXP6qoYu1IrNNYtV3AdNUQSU07qaWd0crFa5OUnkemaLv4OQzpshrEiaiImSJwRDnkUS9cm9cquTG+ZlaLVvk7dNHCNSBGt7qX6RdOWmyTElgktDbTLQwU7X1lU6N7FZtZorUYvTnuPD4f7FXiupci3rGtpt7V4pRU0lQqftKxDZcqIi585RW90mLecYy1aptW5iIiNW5gV5dYrrm5VEzM9aCNk7FPhuFzVu2OrpVt520lHHDn4XK8yHYuxraHrS1nbMF4u7mrxq6/ZRe+kbWkrMt5XYQx680xle+5PdzeT0pwNindRDB9o1LNC1jVFgwHbpnJ76rdJN9ZymQrNoowVhtG/cvCdloFbwdT2+JjutG5nrdlRkYdeIvXOnXM98smLFuno0x4OqKkgp2o2KGNiJzMaiHfsoCp4zMy9dlTJCpTNCp+PpTJMyoAAAAAAAAAAAAAAAAAAAAAAAAAAAAAAAAAAAooEQ9etcqvBqfm1nlhIrxsfNI1kbXPe5dlrGpmqr0IhKvXmiWSuwY1jFkc5KtqNamaqucO5E6S96t2rg3DrKfE+JadHXVyJJSUUiZpTJzPd+f3Obv8NuZXm1nKslorrnXPPqj3zOuXPecZHic60iu2rcaqY1a6vdEao+bnq36uDcMR0+JsSwNfd3N2qajkaipSovvnJzv8nfJLNbspuTcURERNlD4rxdqOwWyquNwqoqKgpY3Sz1EzkayNiJmqqq8ENZY3GX8wvzduzrmd0cOqG6cryzDZRhqbFiNURvn3zPvmS93qhw7aqu5XKqioqCljWWaomcjWRsRM1VVU1Qa4+uLX6dLrJhzDsstFgakk9am9r7g9FXKWTnRqe9Z4V35Zd2uVrkVunC6zYZwzNLQ4FpZN6oqtfcnoqevkT4CLva3wrv3JFYueTZPFqIxGIj1vdHD9UXmOYbeu1anm9/WAAuavAAAAAAAAACrlzoXG3Ycu13ds0Nrra1/RT073+RD4m5RG+X3sVTuW4GRbJq56UcRuYluwBiCdHcHuoJI2/tPRE8ZkWxagOm6+Na52ForY1fj1dCxU8COUxK8dhrfTuRHfD1pw96vo0T4I6gmLZOxe6Tq5yLcLzh62sXjlPLM7qSNE8ZkWydiih2GOvGkSRX++jorYiInec6Rc+owa86wVvfXr7NcsmnLsTXupa9QbR7L2LrRpQOY+4X7EVzVOLEmiiY7wJGq+MyLZdQjQjZmIjsHpcH8duurJpF6ttE8RgV6R4WnoxM936sqnKL079Ud7Tnmic6H1UVqrblIjKSiqKp68GwxOeq95EQ3e2LVs0W4acjrdgHD8Dk3I51CyRetyKe8t1it1qhSKit1LRxpwZBC1iJ4ERDBr0miOhbnvn/ANZVOTVf1V/Jo3segjSNiTZ+5uBr/VI5ckVLfI1OtyIZAs+otptvKtVmCZqVq++rKqCLLv5vz8RuXSNG8EyQZr0GDXpLiJ6FMR4yyacmtR0qplErUR1YcV6v1LimrxYtCysu6wMgp6OZZVjZHtqqvdkib1em5M+Ckt04KVyBWL+IrxNybtzfKas2qbFEW6N0KnRPAyoifFI1HxvarXNcmaKi8UU7weDIYstGrLorsdQ+ekwFYWyucrldJRMlXNVz3baLl4D2lswVYLK1G2+x2+hanNTUscaeJC+bugbJ6VXrlW+qZ73jFqiN1MKIxG5IjURO4hyVuZyB563tqcctwRMzkAKImRUAAUKgACmaDNAGRTvlFe1Oc6n1UTM9p7UTurkeM3aKOlL91TO52590K8tNVii00aZz3Cmi+dK30lpqNJ+HaTNPugyVU5o2q7yIYNzM8FZ+8u0x2zD3ow1+50KJnul6zLujaQx9PpnscOfJpUzKnwY8s+tS0VenOFq/5a2uk7skqN8SIpDXdKcps770T2c7NoyrGV7rc9/N5ssN3hXGEqnThdH58hRU8afnq5y+VC01WlzEVRns1MdOi/7USbuvMhr2nWVW+hM1dkfmzqMgxle+IjtlIFdnPfxOuSdkS5ukTrI21OO7/U57d0myXmY7Z8h8VPJc77WxUrZ6iqnkdsta6Rzs/GRM6f2rtyLeHsVVTO7XMR5a2Z/Dlymnau3IiI7Uno6hkzUVjmyJ0tXNDvPM4HwyuFrK2lWRZJnLtyOz3bS9HcPSomyhs/C3Ll2zRXdp2apjnjXr1KpdppormmidcR7+LsABmvMAAAAAAAAAAAAAAAAAAAAAAAAAAAAAAABaLlYKC7zU01bRU9VJSycpA+aNHrG74Tc03L3i5MRGNyTmOS9AyQTMzERMvKLdNMzVEc8rfcrlSWW3VNdWzx0lFTRulmnmcjWRsamauVeZERDVTrna5NXptuc+FsMTy0mCKWXJz0VWPuT2qqbbuC8nztavfXfkiT81n9BV11gMDU+GbfimTDVMtU2arRsKyMqo0RcmORHNXJFydlnkqpvI7WnsU9ijyW6Y7uNT0pSUUcWfhc5xY8quYPDfz8ROur3Rqnm60TjqcTe/lWY5vfPFrfHlNsOH+xo6ILRsrWsvV6cnHtyv2EXwRNZl1mQbLqT6FrErXQYEoJnt4OqnyTL/ADOUslekmGjo0zP77UPTk9+d8xDS6m9URN5drRhG/X97W2yyXK4K7h2rSSS/VRTeZZdD+BsOtalswfY6HZ4Oht8SOTw7OZ6mnoaelZlDAyJP+2xGmFXpN/Zb8ZZVOTT/AFV/JpJs+qvpdvrWuotHt9e1yZo6Wm5FF8L1RD3eH+x76bL69iS4epbQx3v7hXxJs99GK5fEbg9kEfXpHiqujTEeLJpyezHSqmWsK0diyx7U5LcsVWGiTnSBJp1T+Rp73DvYo6CPffMf1FQnOygtyReN73eQ2AomZxVMzCrzvHV/16uyIZdOW4en+nWiJZ+xjaJ6BWLV1eILk5OKS1jGNXwMYip1nvbDqJ6FMPqxzcGQ10jf9SuqZps++1XbK9Rn/Ibugj68fibnSuT4smnB2Kd1EPB2bQVo8w+jUt2CbBR7PDkrdEi9eyevorPRW5iMpKOClaiZZQxtYniQ+3eDEqu11dKZl7026KejGpVGInMVyQqD5eoUyQqAAAAAoqjaAqCirkU2z51jkDijszkfQ4rlkEXNBlmiHzVdWyipZZ5M0jiYr3ZJmuSJmp51VRTE1VboIiZnVD6N/wD6o4mNqnTbaY8+QpKmZelUa1PKpaajTpJkqRWxqLzbc2aeQqd/SvKcPOqbsT2RMpa3lOMubrc9/My/mcV9kYMq9NV8mz5GGmhb8xXL5fMWifSfiOfNVr1jz5msa3zEHe08y230Imru1eaQo0exlXS1R3pE55LxOqWup4UXbmY1OlXZEZ6jFd3q0/xLnVKn6VU8hbpamadyuklfIq87nKpC3v8A6JajmtWZntnV9GdRo1X/AF3I7oSXqsY2WjzSa6UyL0coi+QtVRpVw9Tpn26ki9EbXL5iPIIW7/8AQsZV91bpp7dc/WEhRo1Zjp1zPhDN1TpstEauSKmqpVTguyjUXxlrqNOrUzSC1PVeZZJcvEiGJMkKkLd02za7zU1RT2RH1ZtGQYOnfTM98siVOm68SL/hU1NC3uorl8paarStiOoRUbWMgz/2o2ovjzPIghr2kma3unfq7p1eTPoyrB2+jbjz812qcYXqrz5W51Ls+KJKrU6kyPgmuFVULnLUSyfOeqnQCJuY/FXeeq5VPbMyzqMPZo6NMR3QAAwprqr3y99mkAB8gAERVXJEzVdyIh9U07U6ofk+q5QwvqJWRRMWSR6o1rW8VVeYzxo6wJHhmkZVVLWvuEyeuXjyafBTzqWzRfo9+5cbbncI0WsemcUTv9NvSv5y+Iybll3jfeiOjPotMY7F0+vPRifdHGeuWuc6zbl5nD2Z9WN88ersc04FTiq5nI22qIAAAAAAAAAAAAAAAAAAAAAAAAAAAAAAAAAABReBUAU3jJCoApvKgAAAABTNCm2ic587UBn3RtHB07GJmr08KlsrMT2m359s3Glgy/3JmtXxqY9eItW49eqI7ZfmuIXZOJVVQ8XW6XsJ0O596plXoY5X+QsNfrD4TpEXk5qirVOaGBU+tkR13OMBZ6d2mO+HxNyiN8spZ+AZ7zBtbrPW6NVSltFVMnMssjWeJMyx1us9cZFXtOzwxJ/3pHPXxZETd0ryq1/ya+yJec37ce9IzMor8l4oRXrdYjF1V7B9JS/o4M/rKpYa/S9i+4oqSXuZjV5oGtjy8LURSHu6cYCjoU1Vd0R9XnOJojcmKszG8Xoh8NVf7fQp/mKyCDL/AHJGt8qkKqrE94rVVai61s+fHlKh7k8aluklfMucj3PX85cyIu6ex/xWfGf0ec4rhCZNZpWwnQqqS32jVycWxyba9SZlhrtYLCVIrkZVS1Sp/swrv68iKQIe7p1jqvu6KafGXnOKrndCSFbrN2WL3NbayZeZXbLE8qnnq7WfrX5pS2SGLoWadX+REMIAh7ulua3f69XZEfk85xFyfeynWaxuKKhMooqKnz52Rqqp1qpYq3TPjGuVdq8PiavvYWNZ40TM8SM8kUjJzvMb1Ubd6rxmPJ+cpXPvTU0e1tTcsF2epq5VlqZaZr3yO4uVU4qelRNxY8FU/a2ErRCu5WUsTVT/AIoX3ih0ngon0a3tTrnZjyhL07oVOt7EexWuRFRUyVFOwovAzZjXGqX0wXpM0fLZpX3O3xqtE9c5Ym/6S9KfmmPCVtRTx1MT4pWpJG5Fa5rkzRUXmMDaRsBPwxVrVUrFfbJXbl48kvwV7nQpofS7RicPVVjsJT6s9KI93XHU2DkmbbcRhr8+t7p49Xa8WADUS6AAAAAAAAAAAAAAAAAAAGVNF2jxZFZeLjHllvp4Xp/OvmLXoxwAt8qWXC4RL9z43Zxscntrk+ynjM4tibGzZaiIiJkiIm5Dcmh+jG3NOPxdPq/0xPv65+ijZ3m2rXhrE9s/RzamSHz1tdBbqWWpqZWwwRNV73vXJGonFVU7ZJGxsVyrstRM1VVyyIyaadLC4oqn2a2SK21wuyllb/8AIcn2U8Zs/Oc3s5RhpuVc9U9GOM/k19cuRbjXL32ENMtRjHSU600sUbbKsb+Tc72xytTPa7y9HQZiRNxE3V//ABlUn6CX6pLFOcwNGMdezDB1X7865mqfpzR1PmzVNdGuXMAF0e4AAAAAAAAAAAAAAAAAAAAAAAAAAAAAAADgm4or286oYg0+Y7vODGWeK01LabtvllkfsI53rdjLLPP4SmDK3STiivXOW+1vRkyVWIvgbkULNdLMPll+rD1UTVVTq16t3PGti3L9NudmYTOkqoom5vka1OlXZFrq8ZWOiz7Yu1HDlx252pl4yFdVdq6uXOorKioX/uyud5VPk4rnzlXu6fT/AMVnxn8oeM4vhCYNbplwhQKqPvcMjk5okc/PqTIsFVrIYVgVUiStqVT/AG4Mk/mVCLoIe7pxj6+hTTT3TPm85xVfuhISu1oKRuaUllmk6FlmRvkRSxVms3eHq7ta1UsSLw5V7n+TIwwCIu6VZrd/5NXZEQ85v3J97I9w1gcYVyrydVT0adEECfa2lLHU6VMWVaZS3yq/4ORn1UQ8oCKu5zj7vTu1T3y85uVzvl99Zf7ncFXtq4VVRnx5WZzvOfAnX3wCNqxF2uddVUz3vjXMgAPHaqqfgAD5AAAAAAAAAAADlHEs8jI04vXZ6ziXDDkC1WILZCnF9TG3+ZDJw1O3fop4y+qYTetkSQUNPHllsRNb1Ih9p1RIjY2plzHadZWadm3TCeUVdxa6y/2+319NQ1NZFDV1OfIwvciOflxyQua8EIx6yFdIzHdA2N7mPp6Nj2uauStVXu4dRC53mf2VhZxGztc8Rq7Xjdr5OnaSaR203cfJcbfDdKSSnqIkkiemy5ruCoYy0M6V2YupG2u5SI27wNyRy7u2Gp75O6nOnhMs8UQycJjMPmuFi5R61NUc8ecS9LdevVXTKOOOcFT4RuHrUdJQyqvIyrzfmr3U8Z5glFfrLS323yUdWxHxSJlv4tXmVO6R3xdhWqwndH00qK6B2boZkTc9vpNFaVaNVZbc9Jw8a7dXynh2Nm5NmsYqnkbs+vHzj81lABrVagAAAAAAAAAAAAAPX6PcDS4qruVmRY7dC7N7v9xfgp5z4MGYRnxZdEhYjo6WPJZpvgp0J3VJDWm1U1mooqSljbFFGmy1qIbP0T0anMLkYvExqt07o4z+UKlnWa+jUzYsz60/L9XfSUsdHBHDCxGRMajWsamSIh3qqcV4JzjPJTDGm/SylhhlsVpkzuMjcp5mL7Q1U4J+cqL4EN3Y/HYfKcNNy5zRG6OM+6Ia1rr2YmqpY9OOlx06zYds82TU9bWVMa8emNq9HSvg6TBacAqq5VVVzVedQc45pmd7NMRN65PZHuiOCFrrm5VrlkjV/wDxl0f6CX6pLFOCkTtX/wDGXR/oJfqksU4Kbm0J9mz2z5Qk8N925AA2GyQAAAAAAAAAAAAAAAAAAAAAAAAAAAAAAAEfdaX2/Dveqf7ZgYzzrS+34d71T/bMDHN2lvta53eUIjEdOQAFNYwAAAAAAAAAAAAAAAAAAAAAAAAAAB6HR7TrU44sUacVrIl8CORV8h549lodplq9JFlZzJK56p81qr5iTyyjlMZZo41R5w9KOeqEx2exQ5FG+xQqdXU7oTjiu5FIn6wU/K6SKhM8+Tp4meLPzkr3+wIf6bJ+2NJV2VFz2XMZ1MRDXOnFezl9NPGqPKWHiZ9R46hrqi2VkNXSyugqIXI+ORi5K1UJW6KNKNNjy18jMrYbtA1OXiT3yfDb3PIRLPvsd7rMO3WnuNvmWCphdtNcnBelF6UXgpq/IM9u5RiONurfH1jsYVq7NuepOjMsmKMMU2KLY+mqETNUza/Le13ShZ9G2kSjx7ZknjVIquJEbUU+easd6F5j2m9E38DoOmrDZrhdcaqqKoTdq7NExctzqmEW7/YKrDtxko6tmTm72vT2L28yoW4kfjPB9Ni22rE9EZUs3xTZb2r6FI9XO11Fmr5aSqjWKeJcnIvBe6ncOc9JtHrmT4jbo57dW6eHVPY2nlWZ0423s1c1cb4+sPlABSFgAAAAAAAAC54cw7V4lucdJTN473yL7FjedVOi12mpvVdDR0kayTSrkicyd1e4SFwbhCmwpbGQxoj6h2SzTZb3r6C86MaO3M3v7dzmt07549UK9m2Z04K3sU89c7urrl9WGsO02G7cyjpmbLW73KvFzudULzlkUXd3Dw2k3SPSYAs7n5tluEyK2np897l+EvcTd5Dom5Xhsrwu1OqmiiPlwasuXJqmblyeeVr0waVI8E25aKie193qGrsJxSJvw18yEWaiolq6iSeaR0s0jlc971zVyrxVTvut1qr3cJ62tmdPUzO23yO4qvm7x8pzznud3c3xEzPNRHRjhHHtlC3bs3J6gAFYeDJGr/8AjLo/0Ev1SWKcFInav34yqT9DL9UlinBToDQj2ZPbPlCWw33bkADYbKAAAAAAAAAAAAAAAAAAAAAAAAAAAAAAAAR91pfb8O96p/tmBjPOtL7fh3vVP9swMc3aW+1rnd5QiMR05AAU1jAAAAAAAAAAAAAAAAAAAAAAAAAAAGRtAFPy+kijd/tQyv8A5cvOY5Mrat0HK48qH/7dG9etzU85YdH6OUzOzT/tHye1npwlInAqUTgVOok04SLki94hbpJqO2ce356Lmi1b06ly8xNCZconKQbxLN2xiO7S558pVzO63qpqjTyvVh7VHGZnwhg4rdELaADSaNXjCeKa7B15guVC9WyMXJ7F9jIznaqEvsEYzoccWWKuo3Ze9lhVfXRv52qQpPS4Bx1W4CvTKylzlgfk2op1XdI30pzKXrRrSCvK7vJXZ126t/V1x9WVZu8nOqdyaa7zxekDA0eK6JZIkbHXRp/hyZcfzV7hfMNYko8VWmC4UMyS08qZ91q87V6FQu+83liMNhs2ws0VxFVFcf8AkwncPfrsXIu251TCKFXSTUNTLTzRrFNG5WuY5N6KdRnTSTo/ZiKndXUTUbcIm8E/1WpzL3egwZJG6KR0b2qx7VVHNduVFOZ8/wAjvZLidirnonozxj84bXy7MLePta45qo3xw/RQAFWS4AAB20tLNXVEcEEayzSORrWN4qp1sY6R7WtTac5URETeqqZx0Z4ASxU7bhWsR1fK3c1U9qavN3+ktGQ5HezrExRTzUR0p4R+cojMsfbwFrXPPVO6H34AwNDhShSSXKSulRFkk6PzU7nlPZomabwqbt3As+JsRUWFbTPcK+VI4Im9O9y8zUTnVTpnD4fDZVhYt0aqaKI/9mWp796u/XN25OuZfDjvG9DgaySVtWu0/wBjFCi+ulfzInpIh4oxLW4tvE9xrpVfNIu5qexY3maicyIfdjvHFbjq+SV1Uqxwt9bBTovrYmdHf6V/9TzhovSTPq80vclanVbp3Rx65QV67NydUbgAFHYwAAMkav8A+Muj/QS/VJYpwUidq/8A4y6P9BL9UlinBToDQj2ZPbPlCWw33bkADYbKAAAAAAAAAAAAAAAAAAAAAAAAAAAAAAAAR91pfb8O96p/tmBjPOtL7fh3vVP9swMc3aW+1rnd5QiMR05AAU1jAAAAAAAAAAAAAAAAAAAAAAAAAAAGa9WGlR98u9TlvjhZH+07P7JhQkBquwolLfZU4rJE3PwOXzlv0Vo282tdWufkyLEa7kM9JwKgHSiYfJXypT0k0i8GsVy+BCClU/lKmV6++eq9ak28YzpTYWu8q+8pZXfyKQfVc1z6TTOn1fr2bfVM+SPxc7oAAaiR4AAPa6MNJNVgC8Irtqa2TqiVFOnN+e3up4yW1qu1Le6CGto5mzU0zUeyRm9FQgoZI0Q6VJcD3BtDWvdJZ6h3r04rA5ffJ3OlPCbK0X0inB1xhcVPqTunhP5Myxe2PVq3JXrvQxZpN0e9vsfdrbH/AJhqZyxN/wBRPhJ3U8Zkqkqoq2njmhkSSJ7Uc1zVzRUXgqH0LkqKnMbbzLLsPnGGm1djXE7p4T7phPYTFXMJdi7bn9UTMslyXiDKOlHR7yLpbxbY/wDDX108DE4L8JPOYuOYc3ym/lOJqsXY7J90x7phtvBYy3jbUXLffHCQpzlTJOjDR464ysutwi/yzFzhif8A6i/CVOjynzlWV3s1xNNizHPO+fdEcZfuNxdvBWpuVz2dcrpou0fdr8ndbhH/AIqpnBE5PYJ8Je70GV0RE5ijWtRERNyHTPUxUsL5ZXoyNiZuc5ckROlVOoMry3D5PhYs241RG+eM8ZalxeKuYu7N25/467pdaaz0M1ZWTMgpoWq98j1yREIk6UdJNRj+7qrHOhtcKqlPBnln+e5OlfEhd9MelV+M611tt71ZaKd3Hgs7k98vc6OvvYy765mpNKdIpxlc4TDT6kb54z+Sv3721OzTuAAa1YYAAAAAyRq//jLo/wBBL9UlinBSJ2r/APjLo/0Ev1SWKcFOgNCPZk9s+UJbDfduQANhsoAAAAAAAAAAAAAAAAAAAAAAAAAAAAAAABH3Wl9vw73qn+2YGM860vt+He9U/wBswMc3aW+1rnd5QiMR05AAU1jAAAAAAAAAAAAAAAAAAAAAAAAAAAEkNWOn2MNXOXLLbq9nPvNT0kbyUWrjTLDo/V6pkstVI7PpRMk8xfdC6NrNInhTM/RlYaNdxlkAHQyWeV0oVXauAr5J0Ur060y85C4l9prqe19Gt4dnlmxjP2ntTzkQTRenlevGW6OFPnKMxU+tEAANYMIAAAAH6MvaFdLTsO1Mdlu82dskXKCZ6+53dCr8FfF3uEl2yJI1HNXNF3pkQKM7aD9LvJuhw/eJvWrkyjqJF4dEbl8nUba0U0k2ZpwOKq5v6Zn3dUs/D3tXqVM+yxtkY5jkRWqmSovOYP0maP1sUzrjQRqtDIqrJG1Pal9CmckXb3+9OE9PHUROjlY2SNyZK1yZoqd02FnWS4fOsPydfNVHRq98T+SxYDH3MFd5Sjd744sDaOsBPxNVpV1TFZb4XcF/1XdCdzpM8wQsp4mxsajWNTJGomSIhwpqaGihbHBE2GNqZNYxuSJ4EO967J55FkljJcPydHPXPSq4z+T7x+PuY+5t180RujgPcjWqqrlkRv026Wn3mWWw2qbKiYuzUzsX21edqfmp4y+6cdLfaTZbBaJ/8yqbNVURr7WnwEXpXn6CPhRtKtJOlgcLV1VTHlCt4i9/RSAA1AjwAH4AAAAADJGr9+Mqk/Qy/VJYpwUidq//AIy6P9BL9UlinBToDQj2ZPbPlCWw33bkADYbKAAAAAAAAAAAAAAAAAAAAAAAAAAAAAAAAR91pfb8O96p/tmBjPOtL7fh3vVP9swMc3aW+1rnd5QiMR05AAU1jAAAAAAAAAB3UdHPcaqKmponTTzORkcbEzVyrwRD6ppmqYimNcyOkHqKjRhiuDPbsVWqdLGbXkLVX4YvFrY59Za6umY3erpIXIid9cjMrwOJtc9duqO6X1NNUb4WwAGC+QAAAAAAAAAACXOguBINGlo3ZK9JHr4ZHf8AgiMTK0TU60+jywsVMl7Va5U7q7zZmglG1ja6uFPnMM7Cb5exAKZob3STFusRWdraPZI88uXqI4/GrvskVySus3Ps4PoI/h1jV6mO9JGo5801ubWZ7PCmI+qJxM/zAAGv2KAAAAAARVRc0XJU3oqAH7FWzzwJHaEtLn3bijsV4n/6ixuUFQ9fb0TmVfhJ4zNKLmhBSypIt5oUhc5kqzsRjmLkqLtJlkTnp0VIY0Vc12U3qb+0QzW7mGFm1e55o1Rr4xPFK4eua6dU+52LwMS6aNLDMJ0rrTbJEddp2+ue3f2uxfffOXmTwmV53oyF7lXJGoq5kGL3XSXO8VtVNI6WWWZ7lc5c1Xep6aW5vcy7DU27PNVXrjXwiN/e/cRcminm975JJHSyOe9yve5Vc5yrmqqvFTiAc/zVtztVIkAB8AAAAAAAADJGr/8AjLo/0Ev1SWKcFInav/4y6P8AQS/VJYpwU6A0I9mT2z5QlsN925AA2GygAAAAAAAAAAAAAAAAAAAAAAAAAAAAAAAEfdaX2/Dveqf7ZgYzzrS+34d71T/bMDHN2lvta53eUIjEdOQAFNYwAAAAAAAAex0PQ9saSbG3LPKRXdTHL5jxxkXQHSds6S6B/HkI5ZF/YVvnJrJbfKY+zT/tHm9rXPXEJZNjbkm48rpNeynwHfJFaiolK9Ml72R6tF3oeF01VPa2ja8u6Y2s/ae1POdIZnsUYG7Vq3Uz5JevoyiCADlerpIIAB8gAAAAAAABlmTdwVAtNhS0xKmSspY0VOj1qEJYGq+aNqcVcieMnXa4O17fTs+BG1vUhtzQGj+Zer6ohn4SOeZfacfQcinSbnSLBGtBUf8ATbJDn7KaRyp3kRPOR8M4a0E6uudlhz3Njkdl31T0GDzm3SuvbzW51ao+UIfETruSAApzHAAAAAAAAX7AdP2zjaxxZZ7VZFmn/JCbDEyY3vEO9DtJ25pKsTMs0bM6Re5ssc7zEx28DeWgdvVhLlzjVq8ISWFj1ZlasUT9q4duc3DYppHfyqQcV20qr0rmTP0n1faWA73Ki5L2q9qeFMvOQvIPT25rvWrfCJnxl84qeeIAAapR4AAAAAAAAAAMkav/AOMuj/QS/VJYpwUidq/fjKpP0Mv1SWKcFOgNCPZk9s+UJbDfduQANhsoAAAAAAAAAAAAAAAAAAAAAAAAAAAAAAABH3Wl9vw73qn+2YGM860vt+He9U/2zAxzdpb7Wud3lCIxHTkABTWMAAAAAAAAGW9WqBJMbVcy+8o3eN7TEhmvVgp9q+3ib4NOxnW7PzFo0Zo281sx16/CNb3sRruQkevAxdrDVfa+jqoizy7Ymjj7+/a+yZQzyRDDms1NsYQo4/h1iL1Md6TfGf18nlt6r/WY8eZKXZ1USjSADmBCAAPwAAAAAAAAfbY4O2r3boePKVMbOt6ITngTKNneQhXo9pu2sc2KPLP/ADsTupyL5ia7E9Y03XoFR/Iu19cR8klhd0uwovAqUVDbDORj1l59vGdDFnujo0XLuq9xiEyXrCVPLaRpmIu6KniZ4lXzmNDl7SGvlM0vVf7T8uZC3p13JAAV14gAAAAAAAMm6vFLy+kOORUzSGmkfn0LuTzkrF4IRp1ZqdX4puUnNHTbPhVyekksnFDoTQq3sZXFX91Uz9PolsNGq2x5p4qu19HFyTPZWTk2J+2i+YiSSe1k6jk8CRMz9trI25d5HL5iMJr/AE3ubWYxRwpjzYuJn19QADXbDAAAAAAAAAABkjV//GXR/oJfqksU4KRO1f8A8ZdH+gl+qSxTgp0BoR7MntnyhLYb7tyABsNlAAAAAAAAAAAAAAAAAAAAAAAAAAAAAAAAI+60vt+He9U/2zAxnnWl9vw73qn+2YGObtLfa1zu8oRGI6cgAKaxgAAAAAAAAz3qu0+aX2deOcLE/mUwISR1ZKdGYUuU2S5vrFZ4EY30l30Po280onhEz8mTh4/mQzSpgvWhqFbbLNBzOmkf1NRPOZzXgR41oKhVuNjg5mslf4VVvoNt6V17GVXOvVHzZ9+dVuWDQAc2ocAAAAAAAAAAHs9DNN2zpJsyfBlc/qY4mKz2KkS9AVNy+kihcu/ko5X/AMqp5yWjOJvnQajZwFVXGqfKEphug5nF/A5HGT2Cmx69zMQ70zVHbOkq8rnmjZGMTwMaeKPSaSZ0nx9fXZ5p23ImfeXLzHmzlPNa+Ux12rjVPmgq+eqQAEW+AAAAAAAB+jPWq5S5vvtQqb05GNF/aVfMZ/6DDOrJS8lhS4zqm+WsyTvIxvpUzO06V0Xt8nldmOMTPjKZsRqtwwXrP1istNnpc90k75FT5rUT7SkeTN2tBVJJdrNBnvZFI/LvuRPsmETTWltzlM1udWqPlCOxE67kgAKcxwAAAAAAAAAAZI1f/wAZdH+gl+qSxTgpE7V//GXR/oJfqksU4KdAaEezJ7Z8oS2G+7cgAbDZQAAAAAAAAAAAAAAAAAAAAAAAAAAAAAAACPutL7fh3vVP9swMZ41pV/x8O/Nqf7Zgc5u0t9q3O7yhEYjpyAAprGAAAAAAAACUmrlByWj5j+eSqld40TzEWyXGgmnSDRvalRFTb239blNi6EUbWY1VcKZ84ZmFj1pZBXghGTWWnV+MKCL3sdIi+FXOJN9BFPWHqeV0iSMzzSKmjb5V85ftM69nLJjjMQy8R92xkADnxEAAAAAAAAAAAyxq2UqS48qJMvaqJ7kXuq5qedSUPvSOGrBTo++3qf4EDGJ4XKv2SR/oOiNDaNjKqJ4zM/PV9Evh/u4V5kOuZcmOXoQ7T5LhL2vRzP8AgRud1IXO9OzbqlkoR4qqUrMTXWZN6SVUjs++5S1nbWS8tVzyfDkc7PvrmdRydiqtu/VVxmUBO8ABivwAAAAAAAvA/Y3iVOrxRrTaPKd6/wCvLJJ48vMZQXgh4jQzTpS6OLKxEy2oVf1uVfOe36TqbJ7fJZfZp/1jyTluNVEQjBrK1STY3pIU4xUjM/C93/gxKe9051i1Wky5ou9IUjib+wir43KeCOeM+ucrmV6r/aflzIm7Ou5IACvvEAAAAAAAAAAGSNX78ZVL+gl+qSyT2JEzV/8AxlUn6CX6pLNPYnQGhPs6f/6nyhLYb7tUAGw2UAAAAAAAAAAAAAAAAAAAAAAAAAAAAAAAAwxrKYfkuOGaK5RMV7qGZUfknBj9yr1o0jWTvr6CG5UktNURtlglYrHscmaORSNeP9AF1stTJU2KNbhQOXNsCL/ixJ0Ze+TvbzTel+Q4i9f9Nw1M1RMRriN8avej8RamZ26WJAXl+C7/AAuVj7NXNci5Ki07vQcfUhffkit+gd6DV3oWJjmm3PhP5MHZngtALv6kL78kVv0DvQPUhffkit+gd6D89CxHw6vCTZngtALv6kL78kVv0DvQPUhffkit+gd6B6FiPh1eEmzPBaAXf1IX35IrfoHegepC+/JFb9A70D0LEfDq8JNmeC0EytFEPa+j6xs2dnOma/r3+ciamDr65URLPWr/APg70ExsI0T7bhe00sjVZJDSxRuavFFRqIps7QfC3LWIuXLlMxzRHPGrfLNwtMxMzMLy7p5iH2mqpWp0k3hVXcxzGJ4GNJguzVvdIiaScLXqpx3e52WqrkjkqXK17YXK1ycyoqIT+m9Ny5g6KKKZn1vdHU9cTrmmNTwYLv6kL78kVv0DvQPUhffkit+gd6DSfoeJ+HPhKN2Z4LQC7+pC+/JFb9A70D1IX35IrfoHegehYj4dXhJszwWgF39SF9+SK36B3oHqQvvyRW/QO9B+ehYj4dXhJszwWgF39SF9+SK36B3oHqQvvyRW/QO9A9CxHw6vCTZngtALv6kL78kVv0DvQPUhffkit+gd6B6Hif7J8JNmeDM2q7D6y+zZe+iZ9Yz4nExDq7WGqs+Ga+StpZaSWap3NmYrVVqNTfkvNvUy93zozRuzVZyy1TXGqdWvxlL2Y1W41mZZ8V1PamG7pNw5Olld1MVS786HndIEc82DL1HTROnnkpJGMjYmauVWqm5PCTmMmfR7kxviJ8nrO5ClEyREBeFwffU//kVqf/g70FPUhffkit+gd6DluvCYnanXbnwlC7M8FoBd/Uhffkit+gd6B6kL78kVv0DvQefoWI+HV4S+dmeC0Au/qQvvyRW/QO9A9SF9+SK36B3oHoWI+HV4SbM8FoBd/Uhffkit+gd6B6kL78kVv0DvQPQsR8Orwk2Z4LQF4F39SF9+SK36B3oOymwXfJ6iKL7kVvr3I32h3OvePS1gcTVXEcnPP1S+opngl7gGkWhwbZoFTJWUkSKn/FD0D19ZmfNbaftWip4csuTja3LvJkd8meyqIdR4ejksNRRwiI+SbjmhDLSfUJU6QL9I1c86pzerd5jyx6vFOGL9WYkukzrRW5yVMjs0hcvFy9wtfqQvvyRW/QO9BzNjsLibmKu1zbq56pndPFDVU1TVM6loBd/Uhffkit+gd6B6kL78kVv0DvQYPoWI+HV4S89meC0Au/qQvvyRW/QO9A9SF9+SK36B3oHoWI+HV4SbM8FoBd/Uhffkit+gd6B6kL78kVv0DvQPQsR8Orwk2Z4LQC7+pC+/JFb9A70D1IX35IrfoHegehYj4dXhJszwWgF3TB99Vcks9aq9CQO9B6rCehHEmJKpEqKR9ro+LpqluyuX5reKr1IZGHyvGYi5Fu3aq1z1S+ooqmeaF/1bbBLV4mq7s5uVNSwrEi9L35bupF60JMouRYMJYUocGWWG30EezFGmbnr7J7udyrzqp6BFOishy6crwVFiuddW+e2Utao2KdlUAFkewAAAAAAAAAAAAAAAAAAAAAAAAAAAAAAAAUVEXiVAHXybehOopybehvUdoPLk6eA6uTb0N6hybehvUdoHJ08B1cm3ob1Dk29Deo7MkKjk6eA6uTb0N6hybehvUdoHJ08B1ck34J2ZZcxUH1FFMbgOCxt6DmD9mmKt46uTb0N6hybehvUdmSFT45OngOrk29Deocm3ob1HZkhUcnTwHVybehvUOTb0N6jtA5OngOrk29Deocm3ob1HaUyQcnTwHXybehvUV5Jq+9Q7AOTp4Dg1qZcDmAfUcwHFUzOQPsdWwz4PiHJN6G9R2g8eTo4Dq5NvQ3qHJt6G9R2lMkP3k6eA6+Tb0N6hybehvUdoHJ08B1cm3ob1Dk29Deo7QOTp4Dq5NvQ3qK8k34KdRzyQqOTp4DiiZdwqqZlQfeodfJtV3AbDehOo7CmSHxsU8B18m3ob1Dk29Deo7QOTp4Dq5NvQ3qHJt6G9R2gcnTwHVybehvUOTb0N6jsyQqOTp4Dq5NvQ3qHJt6G9R2gcnTwHXyTeZEOWxlwORTJD6iimNwqAD7AAAAAAAAAAAAAAAAAAAAAAAAAAAAAAAAAAAAAAAAAAAAAAAAAAAAAAAAAAAAAAAAAAAAAAAAAAAAAAAAAAAAAAAAAAAAAAAAAAAAAAAAAAAAAAAAAAAAAAAAAAAAAAAAAAAAAAAAAAAAAAAAAAAAAAAAAAAAAAAAAAAAAAAAAAAAAAAAAAAAAAAAAAAAAAAAAAAAAAAAAAAAAAAAAAAAAAAAAAAAAAAAAAAAAAAAAAAAAAAAAAAAAAAAAAAAAAAAAAAAAAAAAAAAAAAAAAAAAAAAAAAAAAAAAAAAAAAAAAAAAAAAAAAAAAAAAAAAAAAAAAAAAAAAAAAAAAAAAAAAAAAAAAAAAAAAAAAAAAAAAAAAAAAAAAAAAAAAAAAAAAAAAAAAAAAAAAAAAAAAAAAAAAAAAAAAAAAAAAAAAAAAAAAAAAAAAAAAAAAAAAAAAAAAAAAAAAAAAAAAAAAAAAAAAAAAAAAAAAAAAAAAAAAAAAAAAAAAAAAAAAAAAAAAAAAAAAAAAAAAAAAAAAAAAAAAAAAAAAAAAAAAAAAAAAAAAAAAAAAAAAAAAAAAAAAAAAAAAAAAAAAAAAAAAAAAAAAAAAAAAAAAAAAAAAAAAAAAAAAAAAAAAAAAAAAAAAAAAAAAAAAAAAAAAAAAAAAAH/2Q==;" vertex="1" parent="HGHsy-E57DKtYDnPdhEY-85">
          <mxGeometry x="20" y="5" width="25" height="25" as="geometry" />
        </mxCell>
      </root>
    </mxGraphModel>
  </diagram>
</mxfile>
